<svg xmlns="http://www.w3.org/2000/svg" width="30" height="30" viewBox="0 0 30 30" fill="none">
  <g clip-path="url(#clip0_4207_5000)">
    <path d="M12.4945 9.66988C12.9498 9.7919 13.4222 9.51915 13.5443 9.06379L13.7661 8.23585C14.1344 6.86148 15.5411 6.04932 16.9154 6.41758C18.2898 6.78584 19.102 8.19255 18.7337 9.56692L18.5119 10.3949C18.3899 10.8502 18.6626 11.3226 19.118 11.4446C19.5733 11.5667 20.0457 11.2939 20.1677 10.8385L20.3896 10.0106C21.0019 7.72551 19.6442 5.374 17.3591 4.76171C15.074 4.14941 12.7225 5.50706 12.1102 7.79216L11.8884 8.6201C11.7664 9.07546 12.0391 9.54787 12.4945 9.66988ZM14.0315 17.1808C11.7464 16.5685 10.3887 14.2169 11.001 11.9318C11.123 11.4765 11.5954 11.2037 12.0508 11.3258C12.5061 11.4478 12.7789 11.9202 12.6569 12.3755C12.2886 13.7499 13.1008 15.1566 14.4751 15.5249C15.8495 15.8931 17.2562 15.081 17.6245 13.7066C17.7465 13.2512 18.2189 12.9785 18.6743 13.1005C19.1296 13.2225 19.4024 13.6949 19.2804 14.1503C18.6681 16.4354 16.3166 17.793 14.0315 17.1808ZM22.4954 22.0221L23.8637 13.6036C24.232 12.2293 23.4198 10.8226 22.0455 10.4543L10.4544 7.34847C9.11531 6.9808 7.72798 7.75379 7.32719 9.08395L4.25862 17.2243C3.52432 19.9647 5.1547 22.7886 7.89517 23.523L16.1745 25.7414C18.9338 26.4719 21.7539 24.8227 22.4843 22.0635C22.4865 22.0552 22.491 22.0386 22.4954 22.0221Z" fill="url(#paint0_linear_4207_5000)"/>
  </g>
  <defs>
    <linearGradient id="paint0_linear_4207_5000" x1="31.8528" y1="-11.2066" x2="4.44069" y2="35.099" gradientUnits="userSpaceOnUse">
      <stop offset="0.373125" stop-color="#0A91FF"/>
      <stop offset="0.811414" stop-color="#3DF549"/>
    </linearGradient>
    <clipPath id="clip0_4207_5000">
      <rect width="24" height="24" fill="white" transform="translate(6.21167) rotate(15)"/>
    </clipPath>
  </defs>
</svg>