<svg xmlns="http://www.w3.org/2000/svg" width="30" height="30" viewBox="0 0 30 30" fill="none">
  <g clip-path="url(#clip0_4207_4992)">
    <path d="M20.1989 8.46715C18.0229 4.69831 13.2039 3.40706 9.43579 5.5832C5.66694 7.75914 4.3757 12.5781 6.55184 16.3463C8.72778 20.1151 13.5468 21.4064 17.3149 19.2302C21.0838 17.0543 22.3748 12.236 20.1989 8.46715ZM9.49232 15.4275C9.33065 15.5209 9.14695 15.54 8.9796 15.4951C8.81226 15.4503 8.66344 15.3421 8.56991 15.1811C7.46981 13.2768 7.60097 10.8979 8.90327 9.12091C9.12354 8.82044 9.54398 8.75528 9.84683 8.97542C10.1473 9.19569 10.2126 9.6185 9.99232 9.91898C9.00602 11.2643 8.90642 13.0646 9.73851 14.5058C9.92538 14.8284 9.81473 15.2414 9.49232 15.4275Z" fill="url(#paint0_linear_4207_4992)"/>
    <path d="M21.9481 22.7273L19.6921 18.8198C19.1541 19.3527 18.5475 19.8229 17.8797 20.2085C17.2236 20.5879 16.5105 20.8673 15.7704 21.0735L18.0333 24.993C18.6591 26.0769 20.0409 26.4549 21.1248 25.8291C22.1993 25.2094 22.5739 23.8112 21.9481 22.7273Z" fill="url(#paint1_linear_4207_4992)"/>
  </g>
  <defs>
    <linearGradient id="paint0_linear_4207_4992" x1="27.1812" y1="-7.2587" x2="6.84026" y2="28.8715" gradientUnits="userSpaceOnUse">
      <stop offset="0.373125" stop-color="#3640FF"/>
      <stop offset="0.811414" stop-color="#3DE6F5"/>
    </linearGradient>
    <linearGradient id="paint1_linear_4207_4992" x1="25.2777" y1="13.5036" x2="16.1651" y2="29.6898" gradientUnits="userSpaceOnUse">
      <stop offset="0.373125" stop-color="#3640FF"/>
      <stop offset="0.811414" stop-color="#3DE6F5"/>
    </linearGradient>
    <clipPath id="clip0_4207_4992">
      <rect width="24" height="24" fill="white" transform="translate(6.21167) rotate(15)"/>
    </clipPath>
  </defs>
</svg>