<svg xmlns="http://www.w3.org/2000/svg" width="115" height="30" viewBox="0 0 115 30" fill="none">
  <path d="M33.7751 27.6334C33.064 28.3534 32.2344 28.7134 31.1677 28.7134C30.1011 28.7134 29.2714 28.3534 28.5603 27.6334C27.8492 26.9134 27.4937 26.0734 27.4937 24.9934C27.4937 23.9134 27.8492 23.0734 28.5603 22.3534C29.2714 21.6334 30.1011 21.2734 31.1677 21.2734C32.2344 21.2734 33.064 21.6334 33.7751 22.3534C34.4862 23.0734 34.8418 23.9134 34.8418 24.9934C34.8418 26.0734 34.4862 26.9134 33.7751 27.6334ZM29.2714 27.0334C29.7455 27.5134 30.4566 27.8734 31.1677 27.8734C31.8788 27.8734 32.5899 27.6334 33.064 27.0334C33.5381 26.5534 33.8936 25.8334 33.8936 24.9934C33.8936 24.1534 33.6566 23.4334 33.064 22.9534C32.5899 22.4734 31.8788 22.1134 31.1677 22.1134C30.4566 22.1134 29.7455 22.3534 29.2714 22.9534C28.7974 23.4334 28.4418 24.1534 28.4418 24.9934C28.5603 25.8334 28.7974 26.5534 29.2714 27.0334Z" fill="#101010"/>
  <path d="M36.1455 28.5927V21.5127H38.5159C39.1085 21.5127 39.5825 21.7527 40.0566 22.1127C40.5307 22.4727 40.7677 23.0727 40.7677 23.6727C40.7677 24.1527 40.6492 24.6327 40.2937 24.9927C39.9381 25.3527 39.5825 25.5927 39.1085 25.7127L41.1233 28.5927H40.0566L38.1603 25.7127H37.2122V28.5927H36.1455ZM36.9751 24.8727H38.3974C38.7529 24.8727 39.1085 24.7527 39.3455 24.5127C39.5825 24.2727 39.7011 23.9127 39.7011 23.5527C39.7011 23.1927 39.5825 22.9527 39.3455 22.7127C39.1085 22.4727 38.7529 22.3527 38.3974 22.3527H36.8566V24.8727H36.9751Z" fill="#101010"/>
  <path d="M47.2862 29.0734L46.8121 28.3534C46.338 28.5934 45.7454 28.7134 45.1528 28.7134C44.0862 28.7134 43.2565 28.3534 42.5454 27.6334C41.8343 26.9134 41.4788 26.0734 41.4788 24.9934C41.4788 23.9134 41.8343 23.0734 42.5454 22.3534C43.2565 21.6334 44.0862 21.2734 45.1528 21.2734C46.2195 21.2734 47.0491 21.6334 47.7602 22.3534C48.4714 23.0734 48.8269 23.9134 48.8269 24.9934C48.8269 26.1934 48.4714 27.0334 47.6417 27.8734L48.1158 28.5934L47.2862 29.0734ZM45.1528 27.8734C45.5084 27.8734 45.9825 27.7534 46.338 27.6334L45.5084 26.4334L46.2195 25.9534L47.0491 27.1534C47.6417 26.6734 47.8788 25.9534 47.8788 25.1134C47.8788 24.2734 47.6417 23.5534 47.0491 23.0734C46.5751 22.5934 45.8639 22.2334 45.1528 22.2334C44.4417 22.2334 43.7306 22.4734 43.2565 23.0734C42.7825 23.5534 42.4269 24.2734 42.4269 25.1134C42.4269 25.9534 42.6639 26.6734 43.2565 27.1534C43.7306 27.6334 44.4417 27.8734 45.1528 27.8734Z" fill="#101010"/>
  <path d="M49.1826 28.5927L51.79 21.5127H52.8567L55.4641 28.5927H54.516L53.8048 26.6727H50.8419L50.1308 28.5927H49.1826ZM51.1974 25.8327H53.5678L52.3826 22.5927L51.1974 25.8327Z" fill="#101010"/>
  <path d="M56.4124 28.5927V21.5127H57.3605V27.7527H60.442V28.5927H56.4124Z" fill="#101010"/>
  <path d="M61.3899 28.5927V21.5127H62.338V28.5927H61.3899Z" fill="#101010"/>
  <path d="M71.7012 27.6334C70.99 28.3534 70.1604 28.7134 69.0937 28.7134C68.0271 28.7134 67.1975 28.3534 66.4863 27.6334C65.7752 26.9134 65.4197 26.0734 65.4197 24.9934C65.4197 23.9134 65.7752 23.0734 66.4863 22.3534C67.1975 21.6334 68.0271 21.2734 69.0937 21.2734C70.1604 21.2734 70.99 21.6334 71.7012 22.3534C72.4123 23.0734 72.7678 23.9134 72.7678 24.9934C72.7678 26.0734 72.4123 26.9134 71.7012 27.6334ZM67.1975 27.0334C67.6715 27.5134 68.3826 27.8734 69.0937 27.8734C69.8049 27.8734 70.516 27.6334 70.99 27.0334C71.4641 26.5534 71.8197 25.8334 71.8197 24.9934C71.8197 24.1534 71.5826 23.4334 70.99 22.9534C70.516 22.4734 69.8049 22.1134 69.0937 22.1134C68.3826 22.1134 67.6715 22.3534 67.1975 22.9534C66.7234 23.4334 66.3678 24.1534 66.3678 24.9934C66.4863 25.8334 66.7234 26.5534 67.1975 27.0334Z" fill="#101010"/>
  <path d="M73.9536 28.5927V21.5127H74.9018V27.7527H77.9832V28.5927H73.9536Z" fill="#101010"/>
  <path d="M78.9312 28.5927V21.5127H79.8793V28.5927H78.9312Z" fill="#101010"/>
  <path d="M81.5381 28.5927V21.5127H82.6048L86.0418 27.0327V25.7127V21.5127H86.9899V28.5927H86.0418L82.4862 22.8327V24.1527V28.5927H81.5381Z" fill="#101010"/>
  <path d="M95.2862 25.3555C95.2862 26.3155 95.0491 27.1555 94.4565 27.7555C93.7454 28.4755 92.9158 28.8355 91.8491 28.8355C90.7825 28.8355 89.9528 28.4755 89.2417 27.7555C88.5306 27.0355 88.175 26.1955 88.175 25.1155C88.175 24.0355 88.5306 23.1955 89.2417 22.4755C89.9528 21.7555 90.7825 21.3955 91.8491 21.3955C92.3232 21.3955 92.7973 21.5155 93.2713 21.6355C93.7454 21.8755 94.101 22.1155 94.338 22.4755L93.7454 23.0755C93.2714 22.4755 92.6788 22.2355 91.8491 22.2355C91.138 22.2355 90.4269 22.4755 89.9528 23.0755C89.3602 23.5555 89.1232 24.2755 89.1232 25.1155C89.1232 25.9555 89.3602 26.6755 89.9528 27.1555C90.5454 27.6355 91.138 27.9955 91.8491 27.9955C92.6788 27.9955 93.2713 27.7555 93.8639 27.1555C94.2195 26.7955 94.4565 26.3155 94.4565 25.7155H91.8491V24.8755H95.2862C95.2862 24.9955 95.2862 25.1155 95.2862 25.3555Z" fill="#101010"/>
  <path d="M17.0578 13.8449C17.0702 12.8708 17.3257 11.9156 17.8007 11.0683C18.2757 10.2209 18.9546 9.50904 19.7743 8.99879C19.2536 8.24577 18.5666 7.62607 17.7679 7.18891C16.9693 6.75174 16.0809 6.50915 15.1735 6.4804C13.2377 6.27468 11.3611 7.65321 10.3746 7.65321C9.36912 7.65321 7.85035 6.50083 6.21489 6.5349C5.15704 6.5695 4.12607 6.88097 3.22245 7.43894C2.31882 7.99692 1.57336 8.78238 1.05869 9.71879C-1.17075 13.627 0.492208 19.3707 2.62783 22.5297C3.69632 24.0767 4.94508 25.8046 6.57906 25.7433C8.17801 25.6762 8.77519 24.711 10.7053 24.711C12.6174 24.711 13.1777 25.7433 14.8448 25.7044C16.5606 25.6762 17.6416 24.1506 18.6726 22.589C19.4403 21.4868 20.031 20.2686 20.423 18.9795C19.4262 18.5527 18.5755 17.8381 17.9771 16.9251C17.3787 16.012 17.0589 14.9408 17.0578 13.8449Z" fill="#101010"/>
  <path d="M13.9088 4.40325C14.8443 3.26618 15.3051 1.80468 15.1935 0.329102C13.7643 0.481091 12.4441 1.17271 11.496 2.26615C11.0324 2.80032 10.6773 3.42177 10.4511 4.09496C10.2249 4.76814 10.1319 5.47988 10.1775 6.18947C10.8924 6.19692 11.5996 6.04003 12.2459 5.73063C12.8923 5.42123 13.4608 4.96738 13.9088 4.40325Z" fill="#101010"/>
  <path d="M37.2696 10.8181H31.8132L30.5028 14.7356H28.1917L33.3599 0.241674H35.7611L40.9294 14.7356H38.5789L37.2696 10.8181ZM32.3783 9.0103H36.7034L34.5713 2.65241H34.5116L32.3783 9.0103Z" fill="#101010"/>
  <path d="M52.0912 9.45255C52.0912 12.7364 50.3553 14.8462 47.7357 14.8462C47.0721 14.8813 46.4121 14.7265 45.8314 14.3996C45.2506 14.0726 44.7726 13.5866 44.4519 12.9974H44.4023V18.2314H42.26V4.16836H44.3337V5.92596H44.3731C44.7085 5.3395 45.1946 4.85607 45.7798 4.5271C46.365 4.19814 47.0273 4.03595 47.6963 4.0578C50.3451 4.05781 52.0912 6.17786 52.0912 9.45255ZM49.8892 9.45255C49.8892 7.31313 48.7972 5.90658 47.1311 5.90658C45.4943 5.90658 44.3933 7.34275 44.3933 9.45255C44.3933 11.5817 45.4943 13.0076 47.1311 13.0076C48.7973 13.0076 49.8892 11.6114 49.8892 9.45255Z" fill="#101010"/>
  <path d="M63.5783 9.45255C63.5783 12.7364 61.8424 14.8462 59.2228 14.8462C58.5592 14.8813 57.8992 14.7265 57.3185 14.3996C56.7377 14.0726 56.2596 13.5866 55.939 12.9974H55.8894V18.2314H53.7471V4.16837H55.8207V5.92596H55.8601C56.1955 5.3395 56.6817 4.85607 57.2669 4.52711C57.852 4.19815 58.5144 4.03596 59.1833 4.05781C61.8322 4.05781 63.5783 6.17786 63.5783 9.45255ZM61.3763 9.45255C61.3763 7.31313 60.2843 5.90659 58.6182 5.90659C56.9814 5.90659 55.8804 7.34275 55.8804 9.45255C55.8804 11.5817 56.9814 13.0076 58.6182 13.0076C60.2843 13.0076 61.3763 11.6114 61.3763 9.45255Z" fill="#101010"/>
  <path d="M71.1703 10.6972C71.329 12.1345 72.7081 13.0783 74.5925 13.0783C76.3982 13.0783 77.6973 12.1345 77.6973 10.8385C77.6973 9.71351 76.9138 9.0399 75.0586 8.57826L73.2034 8.12575C70.5748 7.48289 69.3545 6.23821 69.3545 4.21846C69.3545 1.7177 71.5069 0 74.5633 0C77.5881 0 79.6618 1.7177 79.7316 4.21846H77.569C77.4395 2.77203 76.2586 1.89894 74.5328 1.89894C72.8071 1.89894 71.6262 2.7823 71.6262 4.06801C71.6262 5.0927 72.3804 5.69566 74.2255 6.15725L75.8027 6.54934C78.7397 7.25261 79.9601 8.44717 79.9601 10.5672C79.9601 13.2788 77.8268 14.9771 74.4338 14.9771C71.2592 14.9771 69.1158 13.3187 68.9773 10.6971L71.1703 10.6972Z" fill="#101010"/>
  <path d="M84.5835 1.66761V4.16836H86.5682V5.88607H84.5835V11.7117C84.5835 12.6167 84.9809 13.0384 85.8533 13.0384C86.089 13.0342 86.3242 13.0175 86.5581 12.9882V14.6957C86.1658 14.7699 85.7671 14.8035 85.3681 14.796C83.2551 14.796 82.4311 13.9924 82.4311 11.943V5.88607H80.9136V4.16836H82.4311V1.66761H84.5835Z" fill="#101010"/>
  <path d="M87.7176 9.45255C87.7176 6.12772 89.6516 4.03843 92.6675 4.03843C95.6935 4.03843 97.6185 6.12767 97.6185 9.45255C97.6185 12.7865 95.7037 14.8667 92.6675 14.8667C89.6325 14.8667 87.7176 12.7865 87.7176 9.45255ZM95.4357 9.45255C95.4357 7.17179 94.4034 5.82566 92.6675 5.82566C90.9316 5.82566 89.9004 7.18204 89.9004 9.45255C89.9004 11.7424 90.9316 13.0783 92.6675 13.0783C94.4034 13.0783 95.4357 11.7424 95.4357 9.45255Z" fill="#101010"/>
  <path d="M99.3848 4.16836H101.428V5.96697H101.478C101.616 5.40523 101.941 4.9088 102.398 4.56111C102.855 4.21343 103.417 4.0357 103.988 4.05778C104.235 4.05691 104.481 4.08406 104.722 4.13872V6.16759C104.41 6.07116 104.085 6.02689 103.759 6.03651C103.448 6.02373 103.138 6.07929 102.85 6.19937C102.562 6.31946 102.303 6.50123 102.091 6.7322C101.879 6.96317 101.719 7.23788 101.621 7.53746C101.524 7.83703 101.492 8.15439 101.527 8.46773V14.7356H99.3848L99.3848 4.16836Z" fill="#101010"/>
  <path d="M114.599 11.6319C114.311 13.5502 112.466 14.8667 110.105 14.8667C107.069 14.8667 105.185 12.807 105.185 9.5027C105.185 6.18812 107.079 4.03842 110.015 4.03842C112.903 4.03842 114.719 6.04677 114.719 9.2508V9.99396H107.347V10.125C107.313 10.5139 107.361 10.9057 107.488 11.2744C107.615 11.643 107.818 11.9801 108.084 12.2631C108.349 12.5462 108.671 12.7689 109.028 12.9163C109.385 13.0637 109.769 13.1325 110.155 13.1182C110.661 13.1662 111.169 13.0475 111.603 12.7797C112.038 12.5119 112.375 12.1093 112.565 11.6319L114.599 11.6319ZM107.357 8.478H112.575C112.594 8.12832 112.542 7.77839 112.421 7.45017C112.301 7.12195 112.114 6.82253 111.874 6.57069C111.634 6.31886 111.344 6.12005 111.024 5.98674C110.705 5.85343 110.361 5.7885 110.015 5.79602C109.666 5.79391 109.32 5.86178 108.998 5.9957C108.675 6.12962 108.381 6.32695 108.134 6.5763C107.887 6.82565 107.691 7.12207 107.558 7.44847C107.425 7.77487 107.356 8.12477 107.357 8.478Z" fill="#101010"/>
</svg>