<svg width="24" height="24" viewBox="0 0 24 24" fill="none" xmlns="http://www.w3.org/2000/svg">
<path fill-rule="evenodd" clip-rule="evenodd" d="M16.7071 7.29289C17.0976 7.68342 17.0976 8.31658 16.7071 8.70711L9.12132 16.2929C7.94975 17.4645 6.05025 17.4645 4.87868 16.2929L2.29289 13.7071C1.90237 13.3166 1.90237 12.6834 2.29289 12.2929C2.68342 11.9024 3.31658 11.9024 3.70711 12.2929L6.29289 14.8787C6.68342 15.2692 7.31658 15.2692 7.70711 14.8787L15.2929 7.29289C15.6834 6.90237 16.3166 6.90237 16.7071 7.29289Z" fill="#999EA1"/>
<path fill-rule="evenodd" clip-rule="evenodd" d="M21.7063 7.24309C22.0968 7.63361 22.0968 8.26678 21.7063 8.6573L14.0705 16.2931C12.899 17.4646 10.9995 17.4647 9.8279 16.2931L7.24211 13.7073C6.85159 13.3168 6.85159 12.6836 7.24211 12.2931C7.63264 11.9026 8.2658 11.9026 8.65633 12.2931L11.2421 14.8789C11.6326 15.2694 12.2658 15.2694 12.6563 14.8789L20.2921 7.24309C20.6826 6.85256 21.3158 6.85256 21.7063 7.24309Z" fill="black"/>
</svg>
