<svg xmlns="http://www.w3.org/2000/svg" width="98" height="110" viewBox="0 0 98 110" fill="none">
  <g filter="url(#filter0_d_4350_11788)">
    <path d="M81.6047 56.9521L78.2082 53.1945L79.7168 48.3592C79.9412 47.6401 79.5445 46.8745 78.8277 46.6432L74.0074 45.0873L72.8963 40.1455C72.7311 39.4107 72.005 38.9459 71.2684 39.104L66.3159 40.1668L62.8827 36.4426C62.3721 35.8888 61.5108 35.8495 60.952 36.3546L57.1944 39.7512L52.3591 38.2425C51.6399 38.0181 50.8746 38.4149 50.6432 39.1317L49.0873 43.952L44.1455 45.0631C43.4106 45.2283 42.9459 45.9546 43.104 46.691L44.1666 51.6435L40.4425 55.0766C39.8887 55.5872 39.8494 56.4485 40.3545 57.0073L43.7511 60.7649L42.2425 65.6002C42.0181 66.3192 42.4149 67.0848 43.1316 67.3161L47.9519 68.872L49.063 73.8138C49.2283 74.5487 49.9543 75.0134 50.691 74.8553L55.6435 73.7927L59.0766 77.5169C59.3319 77.7938 59.6748 77.9421 60.0239 77.958C60.3729 77.9739 60.7279 77.8574 61.0073 77.6048L64.7649 74.2083L69.6002 75.7169C70.3194 75.9411 71.0848 75.5445 71.3161 74.8278L72.8721 70.0075L77.8138 68.8964C78.5487 68.7311 79.0134 68.0048 78.8554 67.2684L77.7927 62.3159L81.5168 58.8828C82.0706 58.3723 82.1098 57.5109 81.6047 56.9521Z" fill="url(#paint0_linear_4350_11788)"/>
    <path d="M61.2876 36.7257C61.6429 36.4046 62.1902 36.4295 62.5149 36.7816L65.9485 40.5052L66.1413 40.7154L66.4207 40.6558L71.3736 39.593C71.8418 39.4927 72.3028 39.7879 72.408 40.255L73.5192 45.1975L73.5818 45.475L73.8535 45.5627L78.6744 47.1187C79.13 47.2657 79.382 47.7528 79.2396 48.21L77.7308 53.0457L77.646 53.3185L77.8378 53.5296L81.2337 57.2877C81.5548 57.6431 81.5298 58.1904 81.1778 58.5149L77.4542 61.9486L77.244 62.1414L77.3036 62.4208L78.3664 67.3737C78.4666 67.8417 78.1714 68.3029 77.7044 68.4081L72.7619 69.5193L72.4844 69.5819L72.3958 69.8535L70.8407 74.6745C70.6936 75.13 70.2068 75.382 69.7494 75.2396L64.9137 73.7308L64.6409 73.6461L64.4298 73.8378L60.6717 77.2338C60.494 77.3944 60.2693 77.4686 60.0466 77.4585C59.8239 77.4483 59.6068 77.354 59.4445 77.1779L56.0108 73.4542L55.818 73.2441L55.5386 73.3037L50.5857 74.3665C50.1175 74.4667 49.6565 74.1715 49.5513 73.7044L48.4401 68.762L48.3776 68.4835L48.1059 68.3958L43.285 66.8398C42.8295 66.6927 42.5774 66.2066 42.7198 65.7495L44.2286 60.9137L44.3133 60.641L44.1216 60.4299L40.7256 56.6718C40.4045 56.3165 40.4294 55.7693 40.7815 55.4445L44.5052 52.0109L44.7153 51.8181L44.6557 51.5387L43.5929 46.5858C43.4927 46.1178 43.7879 45.6566 44.255 45.5514L49.1974 44.4402L49.4749 44.3776L49.5636 44.106L51.1186 39.285C51.2658 38.8293 51.7527 38.5773 52.2099 38.7198L57.0457 40.2286L57.3184 40.3134L57.5295 40.1216L61.2876 36.7257Z" stroke="url(#paint1_linear_4350_11788)"/>
  </g>
  <defs>
    <filter id="filter0_d_4350_11788" x="0" y="0" width="121.959" height="121.959" filterUnits="userSpaceOnUse" color-interpolation-filters="sRGB">
      <feFlood flood-opacity="0" result="BackgroundImageFix"/>
      <feColorMatrix in="SourceAlpha" type="matrix" values="0 0 0 0 0 0 0 0 0 0 0 0 0 0 0 0 0 0 127 0" result="hardAlpha"/>
      <feOffset dy="4"/>
      <feGaussianBlur stdDeviation="20"/>
      <feComposite in2="hardAlpha" operator="out"/>
      <feColorMatrix type="matrix" values="0 0 0 0 0.878431 0 0 0 0 0.211765 0 0 0 0 0.301961 0 0 0 0.4 0"/>
      <feBlend mode="normal" in2="BackgroundImageFix" result="effect1_dropShadow_4350_11788"/>
      <feBlend mode="normal" in="SourceGraphic" in2="effect1_dropShadow_4350_11788" result="shape"/>
    </filter>
    <linearGradient id="paint0_linear_4350_11788" x1="40.9573" y1="35.0457" x2="81.0021" y2="78.9138" gradientUnits="userSpaceOnUse">
      <stop stop-color="#E05C6E"/>
      <stop offset="1" stop-color="#E0364D"/>
    </linearGradient>
    <linearGradient id="paint1_linear_4350_11788" x1="40.9573" y1="35.0457" x2="81.0021" y2="78.9138" gradientUnits="userSpaceOnUse">
      <stop stop-color="white" stop-opacity="0.08"/>
      <stop offset="1" stop-color="white" stop-opacity="0.2"/>
    </linearGradient>
  </defs>
</svg>