<svg xmlns="http://www.w3.org/2000/svg" width="40" height="40" viewBox="0 0 40 40" fill="none">
  <path d="M5 6.33325C5 4.67639 6.34315 3.33325 8 3.33325H27.0907C27.8863 3.33325 28.6494 3.64932 29.212 4.21193L34.1213 9.12124C34.6839 9.68385 35 10.4469 35 11.2426V33.6666C35 35.3234 33.6569 36.6666 32 36.6666H8C6.34315 36.6666 5 35.3234 5 33.6666V6.33325Z" fill="#0083FF"/>
  <path fill-rule="evenodd" clip-rule="evenodd" d="M11.6666 18.3334C11.6666 17.4129 12.4128 16.6667 13.3333 16.6667H26.6666C27.5871 16.6667 28.3333 17.4129 28.3333 18.3334C28.3333 19.2539 27.5871 20.0001 26.6666 20.0001H13.3333C12.4128 20.0001 11.6666 19.2539 11.6666 18.3334Z" fill="white"/>
  <path fill-rule="evenodd" clip-rule="evenodd" d="M11.6666 24.9999C11.6666 24.0794 12.4128 23.3333 13.3333 23.3333H20C20.9204 23.3333 21.6666 24.0794 21.6666 24.9999C21.6666 25.9204 20.9204 26.6666 20 26.6666H13.3333C12.4128 26.6666 11.6666 25.9204 11.6666 24.9999Z" fill="white"/>
  <path d="M29.212 4.21193L34.1213 9.12124C34.6839 9.68385 35 10.4469 35 11.2426V11.6666H28.6666C27.5621 11.6666 26.6666 10.7712 26.6666 9.66658V3.33325H27.0907C27.8863 3.33325 28.6494 3.64932 29.212 4.21193Z" fill="white"/>
</svg>