<svg xmlns="http://www.w3.org/2000/svg" width="40" height="28" viewBox="0 0 40 28" fill="none">
  <rect width="40" height="28" rx="8" fill="black"/>
  <path d="M9 22.9993V6.00069H23.3311C27.7522 5.94018 31.0324 9.88333 30.9998 14.5C31.0324 19.1426 27.7522 23.0597 23.3311 22.9993H9ZM11.5662 21.0166H22.554C22.6228 21.0175 22.6911 21.0167 22.7592 21.0152C23.1406 21.0036 23.4868 20.9869 23.8586 20.9402L17.6274 13.7831L19.8391 18.0089H15.4587V10.9912H21.3752C23.2004 10.9662 24.5457 12.5941 24.5411 14.5001C24.5393 15.2578 24.452 15.7682 24.0871 16.3492L18.1211 13.3145L26.3446 19.5501C27.6513 18.3438 28.4478 16.5108 28.4335 14.5001C28.4586 10.9604 25.9438 7.93725 22.554 7.98362H11.5662V21.0166Z" fill="white"/>
</svg>