<svg xmlns="http://www.w3.org/2000/svg" width="40" height="28" viewBox="0 0 40 28" fill="none">
  <rect width="40" height="28" rx="8" fill="#118F01"/>
  <path fill-rule="evenodd" clip-rule="evenodd" d="M19.6401 24.8569L16.9759 22.2952C16.7778 22.1047 16.7778 21.7934 16.9759 21.6028L19.6401 19.0411C19.8383 18.8504 20.1618 18.8504 20.3602 19.0411L23.0242 21.6028C23.2224 21.7934 23.2224 22.1047 23.0242 22.2952L20.3602 24.8569C20.1618 25.0477 19.8383 25.0477 19.6401 24.8569ZM16 7.15551L12.8693 4.1448C12.7205 4.00173 12.5087 3.96125 12.3143 4.03873C12.1199 4.11609 12 4.28885 12 4.49107V9.61468C12 9.74947 12.05 9.86551 12.1491 9.9608L12.6158 10.4096L15.6399 13.3176C15.8381 13.5084 16.1618 13.5084 16.36 13.3176L19.0241 10.7559C19.2223 10.5652 19.2223 10.2541 19.0241 10.0635L16 7.15551ZM24.0001 7.15551L27.1309 4.1448C27.2797 4.00173 27.4914 3.96125 27.6857 4.03873C27.8801 4.11609 28 4.28885 28 4.49107V9.61468C28 9.74947 27.95 9.86551 27.8509 9.9608L27.3841 10.4096L24.3601 13.3176C24.1619 13.5084 23.8383 13.5084 23.64 13.3176L20.976 10.7559C20.7777 10.5652 20.7777 10.2541 20.976 10.0635L24.0001 7.15551ZM24.976 13.91L27.1309 11.8377C27.2797 11.6948 27.4914 11.6543 27.6857 11.7316C27.8799 11.8091 28 11.9818 28 12.184V16.3283C28 16.5306 27.8801 16.7033 27.6857 16.7807C27.4914 16.858 27.2797 16.8175 27.1309 16.6746L24.976 14.6023C24.7777 14.4118 24.7777 14.1007 24.976 13.91ZM12.8693 11.8377L15.024 13.91C15.2223 14.1007 15.2223 14.4118 15.024 14.6023L12.8693 16.6746C12.7205 16.8175 12.5087 16.858 12.3143 16.7807C12.1199 16.7033 12 16.5306 12 16.3283V12.184C12 11.9818 12.1201 11.8091 12.3143 11.7316C12.5087 11.6543 12.7205 11.6948 12.8693 11.8377ZM20.976 17.7564L23.64 15.1945C23.8383 15.004 24.1619 15.004 24.3601 15.1945L27.0241 17.7564C27.2224 17.9471 27.2224 18.2582 27.0241 18.4488L24.3601 21.0105C24.1619 21.2012 23.8383 21.2012 23.64 21.0105L20.976 18.4488C20.7778 18.2582 20.7778 17.9471 20.976 17.7564ZM12.9761 17.7564L15.6401 15.1945C15.8383 15.004 16.1618 15.004 16.3601 15.1945L19.0241 17.7564C19.2223 17.9471 19.2223 18.2582 19.0241 18.4488L16.3601 21.0105C16.1618 21.2012 15.8383 21.2012 15.6401 21.0105L12.9761 18.4488C12.7777 18.2582 12.7777 17.9471 12.9761 17.7564ZM19.6401 17.1641L16.9759 14.6023C16.7778 14.4116 16.7778 14.1005 16.9759 13.91L19.6401 11.3481C19.8383 11.1575 20.1618 11.1575 20.3602 11.3481L23.0242 13.91C23.2224 14.1005 23.2224 14.4116 23.0242 14.6023L20.3602 17.1641C20.1618 17.3546 19.8383 17.3546 19.6401 17.1641Z" fill="white"/>
</svg>