<svg xmlns="http://www.w3.org/2000/svg" width="36" height="28" viewBox="0 0 36 28" fill="none">
  <rect width="36" height="28" rx="8" fill="#0083FF"/>
  <path d="M17.8148 4C23.5874 4.07598 27.8437 8.43266 27.9958 13.7111C28.1564 19.3021 23.7165 23.9943 17.8621 24C15.1781 23.8925 12.8398 22.9592 10.9318 21.0497C8.94782 19.0656 7.96372 16.6357 8.00102 13.8502C8.03689 11.1794 9.02529 8.84983 10.9289 6.94889C12.8742 5.00781 15.2527 4.07598 17.8148 4ZM19.7916 12.17C19.8303 12.1858 19.8576 12.1987 19.8863 12.2087C20.648 12.4954 21.163 13.0316 21.4098 13.7971C21.7397 14.8193 21.5704 15.797 21.0353 16.7131C20.6552 17.3653 20.0641 17.7754 19.3842 18.075C18.4187 18.5008 17.3988 18.6541 16.3573 18.6627C14.5942 18.6785 12.8312 18.667 11.0695 18.6685C11.0337 18.6685 10.9863 18.647 10.9648 18.6857C10.9476 18.7187 10.9878 18.7473 11.0064 18.7731C11.3708 19.3036 11.7854 19.7924 12.2616 20.2268C13.4566 21.312 14.8453 22.0145 16.4347 22.3155C17.7215 22.5607 18.9954 22.5019 20.2593 22.1607C20.3453 22.1378 20.3582 22.112 20.3224 22.0303C19.935 21.1429 19.5491 20.254 19.1676 19.3638C19.0858 19.1717 18.9825 18.9896 18.9337 18.7817C18.9136 18.6943 18.9538 18.6843 19.0083 18.667C19.377 18.5481 19.727 18.3889 20.0656 18.204C20.2119 18.1252 20.2119 18.1252 20.2822 18.2728C20.2865 18.2828 20.2908 18.2943 20.2951 18.3043C20.5677 18.9509 20.8388 19.5974 21.1114 20.244C21.1802 20.406 21.2505 20.5666 21.3309 20.7515C21.3868 20.6081 21.4327 20.492 21.4786 20.3759C21.9908 19.0584 22.5086 17.7424 23.015 16.422C23.3091 15.6536 23.8241 15.1232 24.6174 14.8766C24.8814 14.7949 25.1511 14.762 25.4279 14.7921C25.4738 14.7978 25.4767 14.8193 25.4652 14.8537C25.4552 14.8824 25.4437 14.911 25.4322 14.9383C24.6361 16.8579 23.8399 18.7774 23.0451 20.697C23.0308 20.7328 23.0007 20.7673 23.0193 20.8117C26.2743 18.4879 27.6529 13.7427 25.3347 9.75443C23.0265 5.78482 18.522 4.91606 15.5927 5.90524C16.571 5.90524 17.5379 5.90094 18.5048 5.90668C19.0858 5.90954 19.6553 5.98982 20.199 6.20199C20.7986 6.43567 21.3194 6.77686 21.6881 7.31876C21.9979 7.77464 22.1285 8.285 22.1486 8.82976C22.1973 10.1472 21.6465 11.1407 20.5275 11.8288C20.298 11.9679 20.0498 12.0668 19.7916 12.17ZM19.3842 16.1425C19.6037 15.8931 19.7399 15.6192 19.8145 15.3153C19.9422 14.7964 19.9092 14.3003 19.5922 13.8488C19.3842 13.5534 19.0887 13.3642 18.7688 13.2079C18.7171 13.1821 18.6726 13.1578 18.6483 13.0961C18.4259 12.5643 18.2007 12.0353 17.9769 11.5048C17.9324 11.3988 17.9496 11.3744 18.0701 11.3629C18.3255 11.3371 18.5765 11.2941 18.8247 11.2253C19.1934 11.1235 19.5319 10.9615 19.8318 10.7221C20.2492 10.3866 20.4214 9.93076 20.4802 9.4161C20.5749 8.59178 20.2119 7.97391 19.4459 7.68002C19.0786 7.5381 18.6913 7.48362 18.2997 7.48219C16.9842 7.47789 15.6687 7.48076 14.3532 7.47932C14.2843 7.47932 14.2628 7.50226 14.2528 7.5682C14.227 7.74597 14.1954 7.9223 14.1638 8.09863C13.9774 9.15805 13.7909 10.2175 13.6029 11.2755C13.5872 11.3615 13.6044 11.3873 13.6976 11.3873C14.1265 11.383 14.554 11.3902 14.983 11.383C15.1135 11.3801 15.1867 11.4346 15.2355 11.5464C15.409 11.9493 15.5841 12.3507 15.7576 12.7535C15.8078 12.8696 15.8064 12.8696 15.6787 12.8696C14.9371 12.8696 14.1954 12.8725 13.4537 12.8667C13.3505 12.8667 13.3175 12.8983 13.3002 12.9958C13.2314 13.4129 13.1539 13.8301 13.0793 14.2459C12.9144 15.1619 12.7523 16.078 12.583 16.9926C12.5629 17.1001 12.5844 17.1274 12.6963 17.1259C13.9659 17.1216 15.2355 17.1259 16.505 17.1231C17.0114 17.1216 17.5107 17.0614 17.9998 16.9281C18.0816 16.9066 18.0959 16.8837 18.0615 16.8063C17.591 15.7268 17.1219 14.6444 16.6528 13.5635C15.9771 12.0023 15.3014 10.4411 14.6258 8.87994C14.5655 8.74088 14.567 8.73515 14.7205 8.74662C15.5439 8.81399 16.198 9.17669 16.6729 9.85478C16.8995 10.1773 17.02 10.5501 17.1721 10.9056C17.8449 12.4883 18.5105 14.0738 19.179 15.6579C19.245 15.8171 19.3124 15.9733 19.3842 16.1425ZM10.6564 18.204C10.6937 18.095 12.5313 7.64992 12.5313 7.55673C9.5905 9.91069 8.50168 14.5326 10.6564 18.204Z" fill="white"/>
</svg>