<svg xmlns="http://www.w3.org/2000/svg" width="40" height="40" viewBox="0 0 40 40" fill="none">
  <path fill-rule="evenodd" clip-rule="evenodd" d="M23.5842 39.5312C25.5732 36.5898 25.7565 33.413 24.1341 30.0005C23.6829 31.8313 22.8576 32.9423 21.658 33.334C22.7719 30.1528 21.8412 26.7159 18.8656 23.0234C18.8014 26.8371 17.8849 29.6152 16.1161 31.3578C13.6794 33.756 13.708 36.4626 16.202 39.4774C5.84906 33.9679 4.38844 26.5785 11.82 17.3095C12.2809 19.5487 13.3979 20.9235 15.171 21.4338C13.2383 13.2322 15.2718 6.24383 21.2715 0.46875C21.3084 13.2849 25.2384 14.4241 30.2074 20.1449C35.5724 27.0102 32.4196 34.933 23.5842 39.5312Z" fill="url(#paint0_linear_4070_3517)"/>
  <defs>
    <linearGradient id="paint0_linear_4070_3517" x1="31.9923" y1="11.1897" x2="9.13671" y2="34.0454" gradientUnits="userSpaceOnUse">
      <stop stop-color="#EF3E3D"/>
      <stop offset="1" stop-color="#FFC828"/>
    </linearGradient>
  </defs>
</svg>