<svg xmlns="http://www.w3.org/2000/svg" width="125" height="31" viewBox="0 0 125 31" fill="none">
  <path d="M64.9479 6.76228C62.459 6.76228 60.5627 8.68228 60.5627 11.2023C60.5627 13.7223 62.5775 15.6423 64.9479 15.6423C67.4368 15.6423 69.3331 13.7223 69.3331 11.2023C69.4516 8.68228 67.4368 6.76228 64.9479 6.76228ZM64.9479 13.9623C63.6442 13.9623 62.459 12.8823 62.459 11.2023C62.459 9.64228 63.6442 8.44228 64.9479 8.44228C66.2516 8.44228 67.4368 9.52228 67.4368 11.2023C67.4368 12.7623 66.3701 13.9623 64.9479 13.9623ZM55.3479 6.76228C52.859 6.76228 50.9627 8.68228 50.9627 11.2023C50.9627 13.7223 52.9775 15.6423 55.3479 15.6423C57.7183 15.6423 59.7331 13.7223 59.7331 11.2023C59.7331 8.68228 57.7183 6.76228 55.3479 6.76228ZM55.3479 13.9623C54.0442 13.9623 52.859 12.8823 52.859 11.2023C52.859 9.64228 54.0442 8.44228 55.3479 8.44228C56.6516 8.44228 57.8368 9.52228 57.8368 11.2023C57.8368 12.7623 56.6516 13.9623 55.3479 13.9623ZM43.8516 8.08228V10.0023H48.3553C48.2368 11.0823 47.8812 11.8023 47.2886 12.4023C46.696 13.0023 45.6294 13.8423 43.8516 13.8423C41.1257 13.8423 38.9923 11.5623 38.9923 8.80228C38.9923 6.04228 41.1257 3.76228 43.8516 3.76228C45.3923 3.76228 46.459 4.36228 47.1701 5.08228L48.4738 3.76228C47.4071 2.68228 45.8664 1.84229 43.7331 1.84229C39.9405 1.84229 36.7405 4.96228 36.7405 8.80228C36.7405 12.6423 39.9405 15.7623 43.7331 15.7623C45.7479 15.7623 47.2886 15.0423 48.4738 13.8423C49.659 12.6423 50.1331 10.8423 50.1331 9.40228C50.1331 8.92228 50.1331 8.56228 50.0146 8.20228H43.8516V8.08228ZM90.7849 9.64228C90.4294 8.68228 89.2442 6.76228 86.9923 6.76228C84.7405 6.76228 82.8442 8.56228 82.8442 11.2023C82.8442 13.7223 84.7405 15.6423 87.2294 15.6423C89.2442 15.6423 90.4294 14.4423 90.9035 13.7223L89.3627 12.7623C88.8886 13.4823 88.1775 13.9623 87.2294 13.9623C86.2812 13.9623 85.5701 13.4823 85.096 12.6423L91.022 10.1223L90.7849 9.64228ZM84.7405 11.0823C84.7405 9.40228 86.0442 8.44228 86.9923 8.44228C87.7035 8.44228 88.4146 8.80228 88.6516 9.40228L84.7405 11.0823ZM79.9997 15.4023H81.896V2.32228H79.9997V15.4023ZM76.7997 7.72228C76.3257 7.24228 75.496 6.76228 74.4294 6.76228C72.1775 6.76228 70.1627 8.68228 70.1627 11.2023C70.1627 13.7223 72.1775 15.6423 74.4294 15.6423C75.496 15.6423 76.3257 15.1623 76.7997 14.6823H76.9183V15.2823C76.9183 16.9623 75.9701 17.9223 74.5479 17.9223C73.3627 17.9223 72.6516 17.0823 72.296 16.3623L70.6368 17.0823C71.1109 18.2823 72.4146 19.7223 74.5479 19.7223C76.7997 19.7223 78.696 18.4023 78.696 15.0423V7.00228H76.9183V7.72228H76.7997ZM74.5479 13.9623C73.2442 13.9623 72.059 12.8823 72.059 11.3223C72.059 9.76228 73.1257 8.56228 74.5479 8.56228C75.8516 8.56228 76.9183 9.76228 76.9183 11.3223C76.9183 12.7623 75.9701 13.9623 74.5479 13.9623ZM99.9109 2.32228H95.2886V15.4023H97.1849V10.4823H99.9109C102.044 10.4823 104.178 8.92228 104.178 6.40228C104.178 3.88228 102.044 2.32228 99.9109 2.32228ZM99.9109 8.56228H97.1849V4.12228H99.9109C101.333 4.12228 102.163 5.32228 102.163 6.40228C102.163 7.36228 101.333 8.56228 99.9109 8.56228ZM111.881 6.76228C110.459 6.76228 109.037 7.36228 108.444 8.80228L110.103 9.52228C110.459 8.80228 111.17 8.56228 111.881 8.56228C112.829 8.56228 113.896 9.16228 113.896 10.2423V10.3623C113.54 10.1223 112.829 9.88228 111.881 9.88228C109.985 9.88228 108.207 10.9623 108.207 12.8823C108.207 14.6823 109.748 15.7623 111.407 15.7623C112.711 15.7623 113.422 15.1623 113.896 14.4423H114.015V15.4023H115.911V10.3623C115.792 8.08228 114.015 6.76228 111.881 6.76228ZM111.644 13.9623C111.052 13.9623 110.103 13.6023 110.103 12.8823C110.103 11.9223 111.17 11.4423 112.118 11.4423C112.948 11.4423 113.422 11.6823 113.896 11.9223C113.778 13.0023 112.711 13.9623 111.644 13.9623ZM122.548 7.00228L120.296 12.6423H120.178L117.926 7.00228H115.792L119.229 14.9223L117.215 19.3623H119.229L124.563 7.00228H122.548ZM105.126 15.4023H107.022V2.32228H105.126V15.4023Z" fill="#101010"/>
  <path d="M0.592593 0.400879C0.237037 0.760879 0 1.36088 0 2.08088V28.6009C0 29.3209 0.237037 29.9209 0.592593 30.2809L0.711112 30.4009L15.4074 15.5209V15.4009V15.2809L0.592593 0.400879Z" fill="url(#paint0_linear_1099_5274)"/>
  <path d="M20.2665 20.5594L15.4072 15.6394V15.3994V15.2794L20.2665 10.3594L20.385 10.4794L26.1924 13.8394C27.8517 14.7994 27.8517 16.3594 26.1924 17.3194L20.2665 20.5594Z" fill="url(#paint1_linear_1099_5274)"/>
  <path d="M20.3854 20.4409L15.4076 15.4009L0.592773 30.4009C1.18537 31.0009 2.015 31.0009 3.08166 30.5209L20.3854 20.4409Z" fill="url(#paint2_linear_1099_5274)"/>
  <path d="M20.3854 10.3618L3.08166 0.401794C2.015 -0.198206 1.18537 -0.0782051 0.592773 0.521795L15.4076 15.4018L20.3854 10.3618Z" fill="url(#paint3_linear_1099_5274)"/>
  <path opacity="0.2" d="M20.2666 20.3198L3.08142 30.1598C2.13327 30.7598 1.30364 30.6398 0.711048 30.1598L0.592529 30.2798L0.711048 30.3998C1.30364 30.8798 2.13327 30.9998 3.08142 30.3998L20.2666 20.3198Z" fill="white"/>
  <path opacity="0.12" d="M0.592482 29.5516C0.236926 29.1916 0.118408 28.5916 0.118408 27.8716V27.9916C0.118408 28.7116 0.355445 29.3116 0.711001 29.6716V29.5516H0.592482Z" fill="white"/>
  <path opacity="0.12" d="M26.1923 16.9609L20.2664 20.3209L20.3849 20.4409L26.1923 17.0809C27.0219 16.6009 27.3775 16.0009 27.3775 15.4009C27.3775 16.0009 26.9034 16.4809 26.1923 16.9609Z" fill="white"/>
  <path opacity="0.25" d="M3.07991 0.518879L26.191 13.8389C26.9021 14.3189 27.3762 14.7989 27.3762 15.3989C27.3762 14.7989 27.0206 14.1989 26.191 13.7189L3.07991 0.398879C1.42065 -0.561121 0.116943 0.278879 0.116943 2.19888V2.31888C0.116943 0.398879 1.42065 -0.441121 3.07991 0.518879Z" fill="white"/>
  <path d="M46.2016 28.0714C45.4905 28.7914 44.6609 29.1514 43.5942 29.1514C42.5276 29.1514 41.6979 28.7914 40.9868 28.0714C40.2757 27.3514 39.9202 26.5114 39.9202 25.4314C39.9202 24.3514 40.2757 23.5114 40.9868 22.7914C41.6979 22.0714 42.5276 21.7114 43.5942 21.7114C44.6609 21.7114 45.4905 22.0714 46.2016 22.7914C46.9128 23.5114 47.2683 24.3514 47.2683 25.4314C47.2683 26.5114 46.9128 27.3514 46.2016 28.0714ZM41.6979 27.4714C42.172 27.9514 42.8831 28.3114 43.5942 28.3114C44.3053 28.3114 45.0165 28.0714 45.4905 27.4714C45.9646 26.9914 46.3202 26.2714 46.3202 25.4314C46.3202 24.5914 46.0831 23.8714 45.4905 23.3914C45.0165 22.9114 44.3053 22.5514 43.5942 22.5514C42.8831 22.5514 42.172 22.7914 41.6979 23.3914C41.2239 23.8714 40.8683 24.5914 40.8683 25.4314C40.9868 26.2714 41.2239 26.9914 41.6979 27.4714Z" fill="#101010"/>
  <path d="M48.5723 29.0307V21.9507H50.9426C51.5352 21.9507 52.0093 22.1907 52.4834 22.5507C52.9574 22.9107 53.1945 23.5107 53.1945 24.1107C53.1945 24.5907 53.076 25.0707 52.7204 25.4307C52.3649 25.7907 52.0093 26.0307 51.5352 26.1507L53.55 29.0307H52.4834L50.5871 26.1507H49.6389V29.0307H48.5723ZM49.4019 25.3107H50.8241C51.1797 25.3107 51.5352 25.1907 51.7723 24.9507C52.0093 24.7107 52.1278 24.3507 52.1278 23.9907C52.1278 23.6307 52.0093 23.3907 51.7723 23.1507C51.5352 22.9107 51.1797 22.7907 50.8241 22.7907H49.2834V25.3107H49.4019Z" fill="#101010"/>
  <path d="M59.7127 29.5114L59.2386 28.7914C58.7645 29.0314 58.1719 29.1514 57.5794 29.1514C56.5127 29.1514 55.683 28.7914 54.9719 28.0714C54.2608 27.3514 53.9053 26.5114 53.9053 25.4314C53.9053 24.3514 54.2608 23.5114 54.9719 22.7914C55.683 22.0714 56.5127 21.7114 57.5794 21.7114C58.646 21.7114 59.4756 22.0714 60.1868 22.7914C60.8979 23.5114 61.2534 24.3514 61.2534 25.4314C61.2534 26.6314 60.8979 27.4714 60.0682 28.3114L60.5423 29.0314L59.7127 29.5114ZM57.5794 28.3114C57.9349 28.3114 58.409 28.1914 58.7645 28.0714L57.9349 26.8714L58.646 26.3914L59.4756 27.5914C60.0682 27.1114 60.3053 26.3914 60.3053 25.5514C60.3053 24.7114 60.0682 23.9914 59.4756 23.5114C59.0016 23.0314 58.2905 22.6714 57.5794 22.6714C56.8682 22.6714 56.1571 22.9114 55.683 23.5114C55.209 23.9914 54.8534 24.7114 54.8534 25.5514C54.8534 26.3914 55.0905 27.1114 55.683 27.5914C56.1571 28.0714 56.8682 28.3114 57.5794 28.3114Z" fill="#101010"/>
  <path d="M61.6091 29.0307L64.2165 21.9507H65.2832L67.8906 29.0307H66.9425L66.2314 27.1107H63.2684L62.5573 29.0307H61.6091ZM63.624 26.2707H65.9943L64.8091 23.0307L63.624 26.2707Z" fill="#101010"/>
  <path d="M68.8391 29.0307V21.9507H69.7873V28.1907H72.8687V29.0307H68.8391Z" fill="#101010"/>
  <path d="M73.8167 29.0307V21.9507H74.7648V29.0307H73.8167Z" fill="#101010"/>
  <path d="M84.1277 28.0714C83.4166 28.7914 82.5869 29.1514 81.5203 29.1514C80.4536 29.1514 79.624 28.7914 78.9129 28.0714C78.2017 27.3514 77.8462 26.5114 77.8462 25.4314C77.8462 24.3514 78.2017 23.5114 78.9129 22.7914C79.624 22.0714 80.4536 21.7114 81.5203 21.7114C82.5869 21.7114 83.4166 22.0714 84.1277 22.7914C84.8388 23.5114 85.1943 24.3514 85.1943 25.4314C85.1943 26.5114 84.8388 27.3514 84.1277 28.0714ZM79.624 27.4714C80.098 27.9514 80.8092 28.3114 81.5203 28.3114C82.2314 28.3114 82.9425 28.0714 83.4166 27.4714C83.8906 26.9914 84.2462 26.2714 84.2462 25.4314C84.2462 24.5914 84.0092 23.8714 83.4166 23.3914C82.9425 22.9114 82.2314 22.5514 81.5203 22.5514C80.8092 22.5514 80.098 22.7914 79.624 23.3914C79.1499 23.8714 78.7943 24.5914 78.7943 25.4314C78.9129 26.2714 79.1499 26.9914 79.624 27.4714Z" fill="#101010"/>
  <path d="M86.3801 29.0307V21.9507H87.3283V28.1907H90.4098V29.0307H86.3801Z" fill="#101010"/>
  <path d="M91.3577 29.0307V21.9507H92.3058V29.0307H91.3577Z" fill="#101010"/>
  <path d="M93.9646 29.0307V21.9507H95.0313L98.4683 27.4707V26.1507V21.9507H99.4165V29.0307H98.4683L94.9128 23.2707V24.5907V29.0307H93.9646Z" fill="#101010"/>
  <path d="M107.713 25.7935C107.713 26.7535 107.476 27.5935 106.883 28.1935C106.172 28.9135 105.342 29.2735 104.276 29.2735C103.209 29.2735 102.379 28.9135 101.668 28.1935C100.957 27.4735 100.602 26.6335 100.602 25.5535C100.602 24.4735 100.957 23.6335 101.668 22.9135C102.379 22.1935 103.209 21.8335 104.276 21.8335C104.75 21.8335 105.224 21.9535 105.698 22.0735C106.172 22.3135 106.527 22.5535 106.765 22.9135L106.172 23.5135C105.698 22.9135 105.105 22.6735 104.276 22.6735C103.565 22.6735 102.853 22.9135 102.379 23.5135C101.787 23.9935 101.55 24.7135 101.55 25.5535C101.55 26.3935 101.787 27.1135 102.379 27.5935C102.972 28.0735 103.565 28.4335 104.276 28.4335C105.105 28.4335 105.698 28.1935 106.29 27.5935C106.646 27.2335 106.883 26.7535 106.883 26.1535H104.276V25.3135H107.713C107.713 25.4335 107.713 25.5535 107.713 25.7935Z" fill="#101010"/>
  <defs>
    <linearGradient id="paint0_linear_1099_5274" x1="14.1034" y1="1.85252" x2="-6.03397" y2="21.7412" gradientUnits="userSpaceOnUse">
      <stop stop-color="#00A0FF"/>
      <stop offset="0.00657445" stop-color="#00A1FF"/>
      <stop offset="0.2601" stop-color="#00BEFF"/>
      <stop offset="0.5122" stop-color="#00D2FF"/>
      <stop offset="0.7604" stop-color="#00DFFF"/>
      <stop offset="1" stop-color="#00E3FF"/>
    </linearGradient>
    <linearGradient id="paint1_linear_1099_5274" x1="28.3665" y1="15.4011" x2="-0.31129" y2="15.4011" gradientUnits="userSpaceOnUse">
      <stop stop-color="#FFE000"/>
      <stop offset="0.4087" stop-color="#FFBD00"/>
      <stop offset="0.7754" stop-color="#FFA500"/>
      <stop offset="1" stop-color="#FF9C00"/>
    </linearGradient>
    <linearGradient id="paint2_linear_1099_5274" x1="17.6914" y1="18.1562" x2="-9.6164" y2="45.1269" gradientUnits="userSpaceOnUse">
      <stop stop-color="#FF3A44"/>
      <stop offset="1" stop-color="#C31162"/>
    </linearGradient>
    <linearGradient id="paint3_linear_1099_5274" x1="-3.0845" y1="-8.38677" x2="9.10968" y2="3.65675" gradientUnits="userSpaceOnUse">
      <stop stop-color="#32A071"/>
      <stop offset="0.0685" stop-color="#2DA771"/>
      <stop offset="0.4762" stop-color="#15CF74"/>
      <stop offset="0.8009" stop-color="#06E775"/>
      <stop offset="1" stop-color="#00F076"/>
    </linearGradient>
  </defs>
</svg>