<svg xmlns="http://www.w3.org/2000/svg" width="20" height="20" viewBox="0 0 20 20" fill="none">
  <path d="M17.3943 6.637C17.3972 9.50321 17.3724 12.3694 17.3724 15.2356C17.3724 15.5967 17.368 15.9548 17.0915 16.2208C16.9204 16.3854 16.6907 16.4716 16.4611 16.5169C16.0691 16.5955 15.6639 16.5668 15.2675 16.5169C15.0408 16.4882 14.8112 16.4504 14.6064 16.3431C14.2685 16.1649 14.1193 15.8022 14.1193 15.423V9.71625H7.85892C7.81943 11.2347 8.00666 12.7396 8.29773 14.2263C8.39281 14.7144 8.52153 15.1994 8.7146 15.6572C8.80822 15.8778 8.91646 16.0938 9.04371 16.2963C9.11246 16.4066 9.34503 16.6529 9.23679 16.7979C9.21339 16.8297 9.13879 16.8931 8.8638 16.7979C7.46984 16.3084 6.49568 14.32 6.49568 14.32C5.10611 11.484 5.15731 8.75229 5.1968 7.40455C5.1968 7.40455 5.2597 5.31948 6.05541 3.84785C6.35673 3.29183 6.6873 2.96547 6.81163 2.85064C7.21533 2.47443 7.72728 2.18584 8.25385 2.04533C8.34015 2.02266 8.44547 2.01057 8.50105 2.08159C8.52445 2.11181 8.53323 2.1526 8.53615 2.19037C8.55663 2.48198 8.36209 2.82345 8.29188 3.10146C8.22752 3.35529 8.17048 3.60913 8.12075 3.86598C8.00812 4.45222 7.93352 5.04601 7.89988 5.64282C7.86331 6.28949 7.87648 6.88479 7.91743 7.41513C9.98423 7.42721 12.0525 7.44081 14.1193 7.4529C14.1266 5.02637 14.1281 3.26615 14.1339 3.08182C14.1383 2.92317 14.0813 2.7751 13.9379 2.70106C13.8545 2.65725 13.6556 2.67991 13.6234 2.58472C13.5913 2.48954 13.701 2.37924 13.7522 2.31427C14.384 1.51197 15.4518 1.5014 16.2548 2.02871C17.0798 2.56961 17.3709 3.54265 17.3811 4.50812C17.3899 5.21976 17.3943 5.92989 17.3943 6.64154V6.637ZM8.80237 17.5111C6.27628 16.7481 5.29041 13.9831 4.75068 11.5853C4.63366 11.0625 4.52103 10.5473 4.45375 10.0139C4.25189 8.40176 4.26067 6.62945 4.76677 5.0732C4.38061 5.16235 4.20655 5.50533 3.98129 5.78334C3.15779 6.79867 3.09343 7.98474 3.05394 9.16326C2.96033 11.9313 3.93888 13.9 4.15682 14.323C4.64829 15.2734 5.18364 15.8989 5.34161 16.0787C5.90329 16.7209 6.46789 17.1666 6.90085 17.4627C6.55712 17.3751 6.0715 17.2104 5.55224 16.8795C5.07101 16.5728 4.72727 16.2313 4.50202 15.9699C4.17583 15.5393 3.94619 15.1601 3.79699 14.8911C3.39475 14.172 2.8945 13.276 2.63999 12.0748C2.56832 11.7379 2.52005 11.3949 2.39133 11.3813C2.20557 11.3616 1.9964 12.0446 1.95106 12.1911C1.80479 12.6701 1.76676 13.1083 1.76969 13.3409C1.77992 14.2475 2.43814 16.0107 4.01055 17.2074C4.01055 17.2074 5.38549 18.2529 7.73752 18.333C7.83406 18.336 8.40305 18.3224 8.82577 18.0097C9.03347 17.8556 9.17097 17.6199 8.80237 17.5096V17.5111Z" fill="url(#paint0_linear_4461_107027)"/>
  <defs>
    <linearGradient id="paint0_linear_4461_107027" x1="13.3163" y1="12.1005" x2="2.74642" y2="4.35759" gradientUnits="userSpaceOnUse">
      <stop offset="0.33" stop-color="#9C8837"/>
      <stop offset="0.56" stop-color="#F7E59E"/>
      <stop offset="0.6" stop-color="#F0DE96"/>
      <stop offset="0.67" stop-color="#DECB80"/>
      <stop offset="0.75" stop-color="#C0AC5D"/>
      <stop offset="0.79" stop-color="#B39F4D"/>
    </linearGradient>
  </defs>
</svg>