<svg width="135" height="40" viewBox="0 0 135 40" fill="none" xmlns="http://www.w3.org/2000/svg">
<path d="M19.6164 0C31.1539 0.15196 39.6608 8.86531 39.9648 19.4223C40.2859 30.6043 31.412 39.9885 19.711 40C14.3465 39.785 9.67303 37.9184 5.85968 34.0993C1.89438 30.1312 -0.0725047 25.2713 0.00204192 19.7004C0.0737213 14.3588 2.04921 9.69966 5.85395 5.89779C9.74184 2.01563 14.4956 0.15196 19.6164 0ZM23.5674 16.34C23.6448 16.3716 23.6993 16.3974 23.7566 16.4175C25.2791 16.9909 26.3084 18.0632 26.8015 19.5943C27.461 21.6386 27.1227 23.594 26.0532 25.4261C25.2934 26.7307 24.1121 27.5507 22.7531 28.1499C20.8235 29.0015 18.7849 29.3083 16.7033 29.3255C13.1796 29.357 9.65583 29.3341 6.13493 29.337C6.06325 29.337 5.96864 29.294 5.92563 29.3714C5.89122 29.4373 5.97151 29.4947 6.00878 29.5463C6.73704 30.6071 7.56566 31.5848 8.51756 32.4536C10.9059 34.624 13.6813 36.029 16.8582 36.6311C19.43 37.1214 21.9761 37.0038 24.5021 36.3214C24.6741 36.2755 24.6999 36.2239 24.6282 36.0605C23.8541 34.2857 23.0828 32.5081 22.3201 30.7275C22.1567 30.3433 21.9503 29.9792 21.8528 29.5635C21.8127 29.3886 21.8929 29.3685 22.0019 29.3341C22.7388 29.0961 23.4383 28.7779 24.115 28.408C24.4074 28.2503 24.4075 28.2503 24.5479 28.5456C24.5565 28.5657 24.5651 28.5886 24.5737 28.6087C25.1185 29.9018 25.6604 31.1949 26.2052 32.488C26.3428 32.812 26.4833 33.1331 26.6439 33.503C26.7557 33.2163 26.8474 32.984 26.9392 32.7518C27.9628 30.1168 28.9978 27.4848 30.0099 24.8441C30.5977 23.3073 31.627 22.2464 33.2125 21.7533C33.7401 21.5898 34.2791 21.5239 34.8325 21.5841C34.9243 21.5956 34.93 21.6386 34.9071 21.7074C34.887 21.7647 34.864 21.8221 34.8411 21.8766C33.2498 25.7157 31.6585 29.5549 30.0701 33.394C30.0415 33.4657 29.9812 33.5345 30.0185 33.6234C36.5241 28.9757 39.2795 19.4853 34.6461 11.5089C30.0329 3.56964 21.0299 1.83213 15.1751 3.81048C17.1306 3.81048 19.063 3.80188 20.9955 3.81335C22.1567 3.81909 23.295 3.97965 24.3816 4.40399C25.5801 4.87134 26.6209 5.55372 27.3578 6.63751C27.9771 7.54928 28.238 8.56999 28.2781 9.65952C28.3756 12.2945 27.2746 14.2814 25.0382 15.6577C24.5795 15.9358 24.0835 16.1336 23.5674 16.34ZM22.7531 24.285C23.1918 23.7861 23.4641 23.2385 23.6132 22.6306C23.8684 21.5927 23.8025 20.6007 23.1688 19.6975C22.7531 19.1069 22.1625 18.7284 21.5231 18.4159C21.4199 18.3643 21.331 18.3155 21.2822 18.1922C20.8378 17.1285 20.3877 16.0705 19.9404 15.0097C19.8515 14.7975 19.8859 14.7488 20.1268 14.7258C20.6371 14.6742 21.1389 14.5882 21.6349 14.4506C22.3718 14.247 23.0484 13.923 23.6477 13.4442C24.482 12.7733 24.8261 11.8615 24.9436 10.8322C25.1328 9.18357 24.4075 7.94782 22.8764 7.36005C22.1424 7.0762 21.3682 6.96724 20.5855 6.96438C17.9563 6.95578 15.3271 6.96151 12.6979 6.95865C12.5603 6.95865 12.5173 7.00452 12.4972 7.13641C12.4456 7.49194 12.3825 7.8446 12.3194 8.19726C11.9467 10.3161 11.574 12.4349 11.1984 14.5509C11.1668 14.723 11.2012 14.7746 11.3876 14.7746C12.2449 14.766 13.0993 14.7803 13.9566 14.766C14.2175 14.7602 14.3637 14.8692 14.4612 15.0928C14.8081 15.8985 15.1579 16.7013 15.5049 17.507C15.6052 17.7392 15.6024 17.7392 15.3472 17.7392C13.8648 17.7392 12.3825 17.745 10.9002 17.7335C10.6937 17.7335 10.6278 17.7966 10.5934 17.9915C10.4558 18.8259 10.3009 19.6602 10.1518 20.4917C9.82212 22.3238 9.49813 24.156 9.15981 25.9852C9.11967 26.2003 9.16267 26.2547 9.38631 26.2519C11.9238 26.2433 14.4612 26.2519 16.9987 26.2461C18.0108 26.2433 19.0086 26.1229 19.9863 25.8562C20.1497 25.8132 20.1784 25.7673 20.1096 25.6125C19.1691 23.4535 18.2316 21.2888 17.294 19.1269C15.9435 16.0046 14.5931 12.8822 13.2427 9.75988C13.1222 9.48176 13.1251 9.47029 13.4319 9.49323C15.0777 9.62799 16.3851 10.3534 17.3341 11.7096C17.7871 12.3547 18.028 13.1001 18.3319 13.8112C19.6766 16.9766 21.007 20.1477 22.3431 23.3159C22.475 23.6341 22.6097 23.9467 22.7531 24.285ZM5.30919 28.408C5.38373 28.1901 9.05659 7.29983 9.05659 7.11347C3.17887 11.8214 1.00269 21.0652 5.30919 28.408Z" fill="#0083FF"/>
<path d="M45.7821 13.1965C45.7821 10.0569 45.785 6.9202 45.7764 3.78064C45.7764 3.56847 45.8366 3.51113 46.0459 3.51113C48.9045 3.51686 51.763 3.5312 54.6216 3.5054C55.2008 3.49966 55.7771 3.48533 56.3534 3.55127C56.9641 3.62008 57.5519 3.77204 58.1224 3.98995C58.7131 4.21646 59.2779 4.50317 59.7883 4.88164C60.4649 5.38339 60.9466 6.03424 61.2649 6.81698C61.6433 7.74595 61.7265 8.71792 61.6347 9.69276C61.5258 10.831 60.9667 11.7485 60.0234 12.4137C59.8571 12.5313 59.6908 12.6546 59.4929 12.7262C59.4356 12.7492 59.3811 12.7865 59.3869 12.8581C59.3926 12.9212 59.4499 12.9355 59.4987 12.9556C60.743 13.4602 61.4828 14.4236 61.9386 15.6422C62.3228 16.6629 62.2884 17.6979 62.0705 18.7473C61.8584 19.7738 61.3709 20.6368 60.5767 21.3249C60.0893 21.7493 59.5274 22.0446 58.9224 22.2739C58.0077 22.618 57.0587 22.7757 56.0867 22.8388C55.7283 22.8617 55.3699 22.8732 55.0144 22.8732C52.0411 22.8761 49.0679 22.8761 46.0946 22.8761C45.7792 22.8761 45.7792 22.8761 45.7792 22.5693C45.7821 19.444 45.7821 16.3188 45.7821 13.1965ZM52.5515 19.4182C53.4833 19.4182 54.418 19.4354 55.3499 19.4125C56.0953 19.3953 56.8236 19.2691 57.4773 18.8706C57.9819 18.5638 58.3805 18.1595 58.5267 17.5689C58.7274 16.7546 58.2629 15.7482 57.5404 15.2952C56.6172 14.7161 55.6137 14.4867 54.5385 14.4867C52.8956 14.4867 51.2527 14.4896 49.6098 14.481C49.4349 14.481 49.3833 14.5354 49.3833 14.7017C49.3861 16.207 49.3861 17.7094 49.3833 19.2147C49.3833 19.3752 49.4378 19.4211 49.5983 19.4182C50.5789 19.4154 51.5652 19.4182 52.5515 19.4182ZM52.4999 11.241C53.4031 11.241 54.3034 11.241 55.2065 11.241C55.7455 11.241 56.2674 11.155 56.7749 10.9687C57.83 10.5816 58.2515 9.48346 57.8242 8.47708C57.3684 7.39902 56.4681 6.8944 55.347 6.86859C53.4375 6.82558 51.5251 6.85999 49.6155 6.85139C49.4234 6.85139 49.3804 6.92307 49.3804 7.09223C49.3833 8.3968 49.3833 9.70423 49.3804 11.0088C49.3804 11.1837 49.4263 11.2468 49.6155 11.2439C50.576 11.2382 51.5365 11.241 52.4999 11.241Z" fill="#0083FF"/>
<path d="M88.5009 13.1797C88.5009 10.063 88.5009 6.9493 88.5009 3.83268C88.5009 3.50295 88.5009 3.50294 88.822 3.50294C89.6477 3.50294 90.4735 3.50582 91.2992 3.50008C91.4655 3.50008 91.5773 3.54882 91.6834 3.68358C93.0826 5.45549 94.4875 7.22168 95.8896 8.99073C97.2257 10.6766 98.556 12.3625 99.8893 14.0513C100.443 14.7509 100.996 15.4505 101.549 16.1501C101.592 16.2045 101.621 16.3078 101.719 16.2705C101.807 16.2361 101.77 16.1357 101.77 16.0669C101.77 11.9898 101.77 7.9098 101.77 3.83268C101.77 3.51729 101.784 3.50294 102.108 3.50294C103.141 3.50294 104.173 3.50868 105.205 3.50008C105.426 3.49722 105.492 3.56889 105.492 3.78966C105.486 10.0286 105.486 16.2676 105.486 22.5066C105.486 22.8593 105.486 22.8593 105.128 22.8593C104.362 22.8593 103.599 22.8478 102.834 22.865C102.57 22.8707 102.395 22.7847 102.232 22.5783C101.59 21.7554 100.933 20.9411 100.279 20.1268C99.0836 18.633 97.888 17.1392 96.6895 15.6454C95.2846 13.8907 93.8768 12.1332 92.4719 10.3784C92.4232 10.3154 92.3887 10.2035 92.2913 10.2293C92.1852 10.2609 92.2339 10.3727 92.2339 10.4501C92.231 14.4814 92.2339 18.5155 92.2339 22.5467C92.2339 22.8306 92.2052 22.8593 91.9185 22.8593C90.9093 22.8593 89.9 22.8593 88.8908 22.8593C88.5009 22.8593 88.5009 22.8593 88.5009 22.4579C88.5009 21.5633 88.5009 20.6716 88.5009 19.777C88.5009 17.5779 88.5009 15.3788 88.5009 13.1797Z" fill="#0083FF"/>
<path d="M74.1765 23.7356C73.7178 23.7356 73.3565 23.7327 72.9981 23.7356C72.6455 23.7385 72.3157 23.6152 71.9717 23.5607C70.9596 23.4001 69.979 23.0991 69.0643 22.6375C67.82 22.0096 66.7849 21.1265 65.9821 19.9739C65.5062 19.2886 65.1076 18.5632 64.8123 17.7891C64.5227 17.035 64.3335 16.2551 64.2102 15.4523C64.0554 14.4488 64.0697 13.4424 64.1271 12.4389C64.1701 11.6705 64.3593 10.9251 64.603 10.1882C64.8955 9.29937 65.3141 8.47648 65.8474 7.71381C66.7735 6.38344 67.9547 5.34553 69.4055 4.60006C70.4205 4.07824 71.49 3.72557 72.611 3.58795C73.7235 3.45319 74.8446 3.4704 75.9628 3.65963C76.7025 3.78578 77.4222 3.97501 78.1189 4.24453C79.1511 4.64306 80.0858 5.20503 80.9029 5.9591C81.614 6.61855 82.1932 7.38122 82.6691 8.2213C83.1164 9.00978 83.4461 9.84986 83.6898 10.7272C84.0167 11.9028 84.1056 13.0984 84.0396 14.3055C84.0023 15.0165 83.8848 15.7247 83.707 16.4214C83.5034 17.23 83.2282 18.007 82.8469 18.7467C82.0641 20.2721 80.9689 21.5164 79.4751 22.3852C78.5518 22.9213 77.5598 23.274 76.5161 23.4948C75.7105 23.6611 74.9048 23.8159 74.1765 23.7356ZM67.7311 13.4883C67.7196 14.1334 67.7884 14.7699 67.9318 15.3978C68.1096 16.1835 68.4192 16.9175 68.8321 17.6056C69.2622 18.3252 69.7926 18.9589 70.5094 19.4148C71.4957 20.0455 72.5996 20.2721 73.7493 20.3237C74.4976 20.3581 75.2402 20.2807 75.9742 20.1086C76.8229 19.9079 77.5913 19.5524 78.2278 18.9618C79.3862 17.8837 80.0256 16.5247 80.2922 14.9792C80.599 13.2073 80.3467 11.5214 79.4722 9.94161C78.9188 8.94096 78.1848 8.12095 77.1584 7.57619C76.0947 7.01135 74.9449 6.87086 73.7694 6.87659C73.044 6.87946 72.3358 7.02855 71.6534 7.30667C70.9309 7.60199 70.2714 7.9948 69.7238 8.54243C68.3648 9.90434 67.7311 11.573 67.7311 13.4883Z" fill="#0083FF"/>
<path d="M108.863 3.51455C109.474 3.51455 110.088 3.51743 110.698 3.51169C110.873 3.50882 110.962 3.56616 111.028 3.74679C111.355 4.61555 111.708 5.47284 112.043 6.33586C112.333 7.08133 112.611 7.82966 112.897 8.57226C113.147 9.21738 113.408 9.85676 113.66 10.5019C113.901 11.1241 114.133 11.752 114.377 12.3741C114.675 13.1397 114.979 13.8995 115.277 14.665C115.472 15.1668 115.661 15.6743 115.856 16.176C116.066 16.7122 116.281 17.2483 116.49 17.7845C116.547 17.9336 116.599 18.0827 116.653 18.2318C116.671 18.2777 116.659 18.3493 116.731 18.3551C116.797 18.3608 116.814 18.2949 116.834 18.249C116.955 17.9537 117.075 17.6583 117.19 17.3602C117.39 16.8441 117.582 16.3222 117.783 15.8062C118.033 15.161 118.288 14.5188 118.543 13.8737C118.795 13.2314 119.053 12.5892 119.306 11.9469C119.549 11.3247 119.787 10.6997 120.031 10.0747C120.28 9.42954 120.536 8.7873 120.785 8.14218C120.98 7.64043 121.172 7.1358 121.37 6.63404C121.582 6.09788 121.8 5.56172 122.009 5.02269C122.167 4.62129 122.322 4.21701 122.465 3.80987C122.54 3.60057 122.634 3.49449 122.89 3.50022C124.074 3.51742 125.258 3.50882 126.442 3.50595C126.729 3.50595 126.749 3.52316 126.64 3.78694C126.304 4.60122 125.957 5.41263 125.619 6.22691C125.327 6.9351 125.043 7.64903 124.747 8.35722C124.501 8.95359 124.24 9.54423 123.991 10.1406C123.704 10.8287 123.426 11.5197 123.142 12.2078C122.844 12.9304 122.537 13.65 122.239 14.3726C121.998 14.9546 121.763 15.5424 121.519 16.1244C121.27 16.7265 121.014 17.3258 120.762 17.9307C120.473 18.6246 120.189 19.3213 119.902 20.0152C119.61 20.7234 119.314 21.4316 119.019 22.1397C118.933 22.3491 118.844 22.5612 118.758 22.7705C118.703 22.9053 118.617 22.9598 118.46 22.9598C117.405 22.9512 116.35 22.954 115.294 22.954C114.813 22.954 114.821 22.9512 114.644 22.5067C114.345 21.767 114.033 21.0359 113.732 20.299C113.439 19.588 113.155 18.8769 112.86 18.1687C112.571 17.4748 112.272 16.7839 111.983 16.09C111.693 15.3961 111.412 14.6966 111.123 14.0027C110.873 13.4006 110.618 12.7985 110.369 12.1935C110.079 11.4997 109.795 10.8029 109.508 10.1091C109.256 9.49835 108.995 8.89051 108.743 8.28267C108.459 7.60315 108.184 6.92076 107.9 6.24124C107.642 5.61906 107.378 4.99689 107.12 4.37185C107.028 4.14821 106.939 3.9217 106.836 3.70093C106.765 3.54897 106.856 3.50308 107.005 3.50595C107.625 3.51742 108.244 3.51455 108.863 3.51455Z" fill="#0083FF"/>
<path d="M131.228 13.1825C131.228 10.0515 131.231 6.92342 131.226 3.79246C131.226 3.57742 131.28 3.5 131.509 3.5C132.542 3.51147 133.571 3.50574 134.603 3.50574C134.881 3.50574 134.904 3.53154 134.898 3.80679C134.893 4.08777 134.89 4.37163 134.89 4.65261C134.89 10.4845 134.89 16.3163 134.89 22.1481C134.89 22.2026 134.89 22.2542 134.89 22.3087C134.904 22.9337 134.953 22.8621 134.325 22.8621C133.402 22.8649 132.476 22.8621 131.552 22.8621C131.237 22.8621 131.231 22.8563 131.231 22.5467C131.228 19.4272 131.228 16.3048 131.228 13.1825Z" fill="#0083FF"/>
<path d="M46 36.5L46.4869 26.5H51.794L54.3623 32.4624H54.5205L57.0889 26.5H62.3959L62.8828 36.5H59.1947L59.0851 33.2214L58.9756 29.2308H58.793L56.1273 35.3263H52.7434L50.0777 29.2308H49.8829L49.7856 33.2293L49.6882 36.5H46Z" fill="black"/>
<path d="M64.414 36.5L68.8691 26.5H74.59L79.0207 36.5H75.1743L71.8756 28.1119H71.5956L68.2605 36.5H64.414ZM68.1996 34.1448V32.2433H75.2108V34.1448H68.1996Z" fill="black"/>
<path d="M89.4534 36.5L89.1491 34.6142C89.1004 34.2804 88.999 34.0091 88.8448 33.8005C88.6906 33.5866 88.4553 33.4301 88.1388 33.331C87.8223 33.2267 87.4003 33.1745 86.8729 33.1745L83.3551 33.1667V31.2966L87.0189 31.2887C87.8142 31.2887 88.3863 31.1766 88.7352 30.9523C89.0842 30.728 89.2586 30.3915 89.2586 29.9429V29.7864C89.2586 29.343 89.0842 29.0117 88.7352 28.7926C88.3944 28.5683 87.8183 28.4562 87.0068 28.4562H83.3308V26.5H87.5545C89.4615 26.5 90.8532 26.7374 91.7296 27.2121C92.6141 27.6868 93.0563 28.3701 93.0563 29.2621V29.4656C93.0563 30.1385 92.7886 30.6628 92.253 31.0383C91.7174 31.4139 90.9019 31.6278 89.8064 31.68V32.0243L89.0274 31.6878C89.9687 31.7295 90.699 31.8547 91.2183 32.0634C91.7377 32.272 92.1191 32.5642 92.3625 32.9397C92.6141 33.3101 92.7967 33.7718 92.9103 34.3247L93.3607 36.5H89.4534ZM80.7137 36.5V26.5H84.4141V31.9695L84.4384 32.8772V36.5H80.7137Z" fill="black"/>
<path d="M104.266 36.5L99.799 32.1182H98.8496V30.6471H99.799L104.205 26.5H108.514L103 31.5235V30.9757L108.685 36.5H104.266ZM95.4535 36.5V26.5H99.2269V36.5H95.4535Z" fill="black"/>
<path d="M110.146 36.5V26.5H113.87V36.5H110.146ZM111.253 36.5V34.4577H121.04V36.5H111.253ZM112.325 32.4077V30.4437H120.748V32.4077H112.325ZM111.241 28.5188V26.5H120.93V28.5188H111.241Z" fill="black"/>
<path d="M126.905 36.5V26.9695H130.715V36.5H126.905ZM122.609 28.5423V26.5H135V28.5423H122.609Z" fill="black"/>
</svg>
