<svg xmlns="http://www.w3.org/2000/svg" width="48" height="48" viewBox="0 0 48 48" fill="none">
  <path d="M4 9C4 7.34315 5.34315 6 7 6H41C42.6569 6 44 7.34315 44 9V35C44 36.6569 42.6569 38 41 38H16L7.28037 45.2664C5.97771 46.3519 4 45.4256 4 43.7299V9Z" fill="white"/>
  <path fill-rule="evenodd" clip-rule="evenodd" d="M14 18C14 16.8954 14.8954 16 16 16H32C33.1046 16 34 16.8954 34 18C34 19.1046 33.1046 20 32 20H16C14.8954 20 14 19.1046 14 18Z" fill="#0D91FF"/>
  <path fill-rule="evenodd" clip-rule="evenodd" d="M14 26C14 24.8954 14.8954 24 16 24H24C25.1046 24 26 24.8954 26 26C26 27.1046 25.1046 28 24 28H16C14.8954 28 14 27.1046 14 26Z" fill="#0D91FF"/>
</svg>