<svg xmlns="http://www.w3.org/2000/svg" width="40" height="40" viewBox="0 0 40 40" fill="none">
  <g clip-path="url(#clip0_4070_20825)">
    <path d="M13.3491 36.716C10.4636 37.1424 8.21598 34.9649 8.06348 32.2804C7.94583 30.1896 9.1177 27.7533 12.2136 27.2913C15.4958 26.8 17.3079 29.5834 17.4485 31.7405C17.6116 34.2617 16.038 36.3191 13.3491 36.716Z" fill="#4D453C"/>
    <path d="M12.6054 29.5649C13.9525 29.4731 15.1899 30.3141 15.3355 31.8331C15.4891 33.4303 14.3166 34.4251 12.9183 34.5384C11.4309 34.6574 10.4207 33.6884 10.2704 32.2197C10.1329 30.8952 11.2025 29.6613 12.6054 29.5649Z" fill="white"/>
    <path d="M13.044 34.0802C11.7925 34.268 10.8206 33.3456 10.7595 32.1999C10.7124 31.3092 11.2279 30.2678 12.5707 30.0633C13.9958 29.8471 14.7762 31.0304 14.8311 31.9501C14.8995 33.0265 14.2115 33.9071 13.044 34.0802Z" fill="#B0B0B0"/>
    <path d="M32.9711 31.5904C30.151 32.0096 27.9615 29.9045 27.819 27.3054C27.7085 25.2799 28.8616 22.9185 31.8842 22.4632C35.0907 21.9793 36.8577 24.6712 36.988 26.7612C37.1407 29.2049 35.597 31.2 32.9711 31.5904Z" fill="#4D453C"/>
    <path d="M32.1668 24.4451C33.5721 24.3481 34.8603 25.2245 35.0125 26.8066C35.1715 28.4722 34.0091 29.5239 32.5496 29.6406C31.0016 29.7655 29.9397 28.7482 29.7836 27.219C29.6415 25.8387 30.7083 24.5461 32.1668 24.4451Z" fill="white"/>
    <path d="M32.6319 28.9818C31.4378 29.162 30.5153 28.2885 30.4601 27.2033C30.4173 26.3581 30.9089 25.3722 32.1894 25.1766C33.5468 24.9682 34.2897 26.0892 34.3419 26.9603C34.3997 27.9775 33.7436 28.8133 32.6319 28.9818Z" fill="#B0B0B0"/>
    <path d="M29.5684 23.0836C29.5684 23.0836 32.616 25.9475 33.0213 26.4264C33.4265 26.9053 33.584 27.4351 33.1356 27.8866C32.6609 28.3657 32.028 28.0902 31.5734 27.6296C31.2254 27.2777 27.3852 23.8705 27.3852 23.8705L29.5684 23.0836Z" fill="#2F2F2F"/>
    <path d="M29.4317 20.2552C29.4317 20.2552 29.6877 20.1866 29.9915 20.1518C30.296 20.1194 30.3846 20.1216 30.3846 20.1216L30.6531 22.7465L28.9032 24.4939C28.9032 24.4939 28.0725 25.3636 27.4611 26.366C27.3065 26.6196 26.9489 26.5602 26.9467 26.465C26.9445 26.3698 27.8037 21.0279 27.8037 21.0279L29.4317 20.2552Z" fill="#FC8F02"/>
    <path d="M34.6563 22.3959C34.5628 22.6746 33.2353 22.5308 31.3169 23.1277C29.9125 23.5661 28.879 24.5289 28.879 24.5289C28.879 24.5289 29.238 22.652 29.5641 21.7442C29.9713 20.6076 30.3798 20.1228 30.3798 20.1228C30.3798 20.1228 31.408 20 32.8451 20.6399C33.9119 21.1149 34.7672 22.066 34.6563 22.3959Z" fill="#FFA726"/>
    <path d="M33.1105 21.4953C32.9948 21.7877 32.2432 21.4171 31.6259 21.3444C31.0085 21.2717 30.5692 21.3998 30.383 21.2167C30.1961 21.0313 30.0689 20.6047 30.6414 20.4616C31.5431 20.2433 33.2797 21.0643 33.1105 21.4953Z" fill="#FAD91A"/>
    <path d="M22.0868 12.1526C22.1423 12.2438 23.2677 13.6427 23.2677 13.6427L22.769 15.6838L21.1919 14.9366L20.38 13.7513L22.0868 12.1526Z" fill="#5E636F"/>
    <path d="M21.3581 13.2486C21.3581 13.2486 20.6216 13.9869 20.4291 13.9349C20.2366 13.883 19.4118 12.6883 19.1949 12.6998C18.7786 12.7207 18.1367 12.7012 17.8087 12.0178C17.3016 10.9657 18.1186 10.7597 18.1186 10.7597L20.6764 10.7525L21.3581 13.2486Z" fill="#FC8F0B"/>
    <path d="M19.9279 8.47098C20.1631 8.28631 23.2004 7.65365 23.6615 7.63619C24.1227 7.61873 24.2955 8.26349 24.2955 8.26349L24.3 11.0912C24.3 11.0912 24.0769 11.2726 23.6833 11.3781C23.4031 11.4531 23.2133 11.5946 23.0693 11.7238C22.9229 11.8536 21.3564 13.2517 21.3564 13.2517L19.3994 11.2318L17.7258 11.1678C17.7258 11.1678 17.7831 10.8212 18.2898 10.5197C18.7966 10.2183 19.2078 9.89849 19.3935 9.47087C19.5846 9.04437 19.6896 8.65388 19.9279 8.47098Z" fill="#FCB90A"/>
    <path d="M20.7372 8.85456C20.739 9.10255 21.1971 9.33438 21.7358 9.49027C22.2745 9.64616 22.979 9.74467 23.073 9.31314C23.167 8.8816 23.2486 8.14281 22.8383 8.15699C22.3916 8.17057 20.7346 8.4489 20.7372 8.85456Z" fill="#FED519"/>
    <path d="M24.0308 7.7779C24.2921 7.73894 24.9305 8.26671 24.9402 9.49092C24.9503 10.7072 24.4798 11.1827 24.0648 11.1697C23.5637 11.1538 23.474 10.3652 23.4544 9.3455C23.4454 8.55852 23.7423 7.82157 24.0308 7.7779Z" fill="#DEDFE2"/>
    <path d="M15.1252 11.73C15.1252 11.73 18.4423 10.8568 18.7697 10.7846C19.0972 10.7123 19.493 10.9531 19.5366 11.3478C19.5827 11.7418 19.4038 12.0304 19.0657 12.121C18.7276 12.2116 15.6168 13.0141 15.6168 13.0141C15.6168 13.0141 15.2069 12.9427 15.049 12.3535C14.9194 11.8602 15.1252 11.73 15.1252 11.73ZM18.5019 8.59685L18.9411 10.1201C18.9411 10.1201 19.136 10.5674 19.4894 10.4856C19.9714 10.372 19.8468 9.84893 19.8468 9.84893C19.8468 9.84893 19.1969 7.48146 19.1626 7.35348C19.0688 7.00333 18.6191 6.4457 18.0645 6.06631C17.5099 5.68693 17.0664 5.49002 16.7721 5.73451C16.4754 5.97965 16.627 6.76727 16.833 7.47817C17.0429 8.20356 17.3325 9.05254 17.6531 9.0805C18.0819 9.11573 18.5019 8.59685 18.5019 8.59685Z" fill="#464C4F"/>
    <path d="M8.36327 23.7496C8.36327 23.7496 6.98399 23.7698 6.78831 23.8895C6.59263 24.0093 6.48594 24.4804 6.49889 25.0697C6.51114 25.6177 6.55721 26.3015 6.64311 26.3613C6.8088 26.4774 7.3471 26.4289 7.3471 26.4289C7.3471 26.4289 8.5552 24.6688 8.55864 24.585C8.56208 24.5013 8.36327 23.7496 8.36327 23.7496Z" fill="#FF281D"/>
    <path d="M22.6365 13.3537C22.6365 13.3537 21.431 14.3704 21.2663 14.5284C21.1022 14.6888 20.996 14.901 21.2465 15.2273C21.4946 15.5543 23.2343 18.2509 23.6493 19.2008C24.0643 20.1508 24.2742 21.2722 24.2742 21.2722L27.3768 21.1345L27.5759 19.8103L22.6365 13.3537Z" fill="#FC8F0B"/>
    <path d="M26.9492 20.4856L24.2742 21.2723C24.2742 21.2723 24.4456 22.1632 24.2929 23.3223C24.1793 24.1732 23.888 25.5686 23.4879 26.0071C23.3224 26.1912 22.6908 26.5675 21.9808 26.7577C21.3554 26.9253 20.8149 26.8786 20.4095 26.7569C19.9475 26.6167 19.6986 26.422 19.6986 26.422L16.8585 26.7663L18.1354 30.3245L24.8182 28.5572L27.4522 23.995L26.9492 20.4856Z" fill="#5F6364"/>
    <path d="M16.8488 20.8186C17.2774 20.7763 18.4478 21.3193 18.4478 21.3193L18.4859 22.1762L11.39 25.9565L6.66381 28.0615C6.66381 28.0615 6.99862 26.1911 7.69587 24.6688C8.27025 23.4123 8.77107 22.8666 8.77107 22.8666L16.8488 20.8186Z" fill="#FE8D00"/>
    <path d="M23.0642 12.97C23.0642 12.97 22.4455 13.5007 22.2964 13.6494C22.0722 13.8751 22.4579 14.4938 22.7878 14.817C23.1177 15.1401 24.4557 16.2698 25.3882 17.7023C26.1221 18.8282 26.5435 20.7677 26.6075 21.5477C26.6654 22.2465 26.0427 25.0999 25.6943 26.1664C25.3108 27.3433 24.7681 27.7424 24.2539 27.9966C23.4222 28.4084 20.4146 29.0745 19.4412 29.1412C18.4678 29.2079 17.9814 28.7352 18.5263 27.8904C19.0729 27.0425 19.6945 26.4257 19.6945 26.4257C19.6945 26.4257 18.8367 25.7263 18.7083 24.8704C18.6129 24.2437 18.4883 22.1755 18.4883 22.1755L14.4729 23.2048L11.0067 23.9654L8.21848 25.4889C8.21848 25.4889 7.34384 26.1271 6.82178 27.5015C6.42398 28.5476 6.36412 29.5316 6.36898 29.8202C6.37383 30.1088 6.29669 31.1828 6.82214 31.1637C7.34759 31.1445 14.5247 29.8504 15.1354 29.7825C15.7462 29.7146 16.4795 29.3991 16.965 30.0713C17.4643 30.7658 17.56 31.4803 18.9922 31.1457C20.4244 30.8112 25.0322 30.0993 25.982 28.9208C26.7733 27.9427 27.7177 26.2222 28.4363 23.5915C29.1549 20.9609 29.5972 20.216 29.5972 20.216L29.1093 18.8974L25.7022 14.7401L23.2816 13.0955L23.0642 12.97Z" fill="#FDB700"/>
    <path d="M23.5124 12.6144C23.6354 12.5323 25.7174 13.7344 27.1505 15.364C29.0597 17.5338 29.6033 20.2196 29.6033 20.2196C29.6033 20.2196 28.8479 19.9794 28.4666 19.551C28.0852 19.1227 26.8416 17.186 26.8416 17.186C26.8416 17.186 25.8432 15.9809 24.434 14.6917C23.7374 14.0527 22.6528 13.3857 22.7494 13.2537C22.8531 13.1094 23.5124 12.6144 23.5124 12.6144ZM17.1127 28.3624C16.818 28.2861 17.2824 25.8659 15.7207 24.703C14.3622 23.6901 12.7216 23.9614 11.0711 24.4762C9.70708 24.9012 7.8966 25.7849 7.8966 25.7849C7.8966 25.7849 9.91442 22.9511 14.1982 22.6237C17.4602 22.376 18.1448 24.8247 18.0908 25.9754C18.0314 27.2026 17.2936 28.4097 17.1127 28.3624Z" fill="#FED519"/>
    <path d="M19.0209 20.705C19.0775 21.003 19.1106 21.2426 18.5732 21.3814C18.0383 21.5196 15.8688 22.0103 13.3055 22.6247C10.7422 23.239 9.84506 23.407 9.35143 23.371C8.85781 23.335 8.62476 23.1801 8.44558 22.6949C8.26706 22.2122 8.01724 21.0963 8.02785 20.6819C8.03847 20.2676 8.25501 20.0905 8.83534 19.9091C9.37285 19.7418 11.0149 19.3018 11.2637 19.2351C11.7828 19.096 13.8522 19.7968 14.1132 19.776C14.3743 19.7553 15.2408 19.5697 16.2332 19.3038C17.0446 19.0863 17.7519 18.8476 17.9272 18.7774C18.1025 18.7071 18.5432 18.7288 18.6648 19.1828C18.8107 19.7467 18.9744 20.4638 19.0209 20.705Z" fill="#464C4F"/>
    <path d="M26.687 17.2274C26.9853 16.9689 27.7435 17.229 28.4067 18.3325C29.0274 19.3645 28.7619 20.0542 28.4476 20.0789C28.1381 20.1023 27.8839 19.1248 27.4194 18.5504C26.9574 17.9754 26.4181 17.4599 26.687 17.2274Z" fill="white"/>
  </g>
  <defs>
    <clipPath id="clip0_4070_20825">
      <rect width="32" height="32" fill="white" transform="matrix(-0.965926 0.258819 0.258819 0.965926 30.9096 0)"/>
    </clipPath>
  </defs>
</svg>