<svg xmlns="http://www.w3.org/2000/svg" width="24" height="24" viewBox="0 0 24 24" fill="none">
  <path fill-rule="evenodd" clip-rule="evenodd" d="M12.7071 4.12126C12.3166 3.73074 11.6834 3.73074 11.2929 4.12126L8.41424 6.99994H15.5858L12.7071 4.12126ZM9.87871 2.70705C11.0503 1.53548 12.9498 1.53547 14.1213 2.70705L20.4142 8.99994H3.58582L9.87871 2.70705Z" fill="#0083FF" fill-opacity="0.5"/>
  <path d="M2.16306 8.14142C2.077 7.53899 2.54446 7 3.15301 7H20.847C21.4555 7 21.923 7.53899 21.8369 8.14142L20.368 18.4243C20.1568 19.9022 18.8911 21 17.3981 21H6.60189C5.10894 21 3.84317 19.9022 3.63204 18.4243L2.16306 8.14142Z" fill="#0083FF"/>
  <path d="M13 11C13 10.4477 12.5523 10 12 10C11.4477 10 11 10.4477 11 11V13H9C8.44772 13 8 13.4477 8 14C8 14.5523 8.44772 15 9 15H11V17C11 17.5523 11.4477 18 12 18C12.5523 18 13 17.5523 13 17V15H15C15.5523 15 16 14.5523 16 14C16 13.4477 15.5523 13 15 13H13V11Z" fill="white"/>
</svg>