<svg xmlns="http://www.w3.org/2000/svg" width="20" height="20" viewBox="0 0 20 20" fill="none">
  <path fill-rule="evenodd" clip-rule="evenodd" d="M17.2904 10.5654C17.2904 13.1905 16.6858 15.1466 15.4772 16.4214C14.2687 17.6962 12.4019 18.3333 9.88465 18.3333C7.53299 18.3333 5.74842 17.6959 4.53201 16.4214C3.31524 15.147 2.70703 13.2249 2.70703 10.6551V2.03346C2.70775 1.83128 2.87258 1.66776 3.07603 1.66705H7.34027C7.54407 1.66776 7.70891 1.83128 7.70962 2.03346V10.8434C7.70962 11.8926 7.90521 12.7003 8.30353 13.2699C9.02043 14.2127 10.372 14.4004 11.3224 13.6892C11.4651 13.5824 11.5938 13.4586 11.7053 13.3203C12.0947 12.7858 12.2885 11.998 12.2874 10.957V9.30725H17.2904V10.565V10.5654Z" fill="#203E7A"/>
  <path fill-rule="evenodd" clip-rule="evenodd" d="M16.9048 8.34401H12.2891V2.0506C12.2898 1.83885 12.4625 1.66753 12.6756 1.66718H13.3664C13.3678 3.81594 15.1241 5.55715 17.2902 5.55715H17.2913V8.34401H16.9044H16.9048Z" fill="#203E7A"/>
  <path fill-rule="evenodd" clip-rule="evenodd" d="M14.348 1.66701H16.9031C17.1166 1.66772 17.2893 1.83904 17.2896 2.05044V4.58831C15.6649 4.58831 14.3477 3.2816 14.3477 1.66985V1.66666L14.348 1.66701Z" fill="#F4821F"/>
</svg>