<svg xmlns="http://www.w3.org/2000/svg" width="28" height="28" viewBox="0 0 28 28" fill="none">
  <path d="M14.0003 9.33341C14.0003 8.68908 13.478 8.16675 12.8337 8.16675C12.1893 8.16675 11.667 8.68908 11.667 9.33341V11.6667H9.33366C8.68933 11.6667 8.16699 12.1891 8.16699 12.8334C8.16699 13.4777 8.68933 14.0001 9.33366 14.0001H11.667V16.3334C11.667 16.9777 12.1893 17.5001 12.8337 17.5001C13.478 17.5001 14.0003 16.9777 14.0003 16.3334V14.0001H16.3337C16.978 14.0001 17.5003 13.4777 17.5003 12.8334C17.5003 12.1891 16.978 11.6667 16.3337 11.6667H14.0003V9.33341Z" fill="#0083FF"/>
  <path fill-rule="evenodd" clip-rule="evenodd" d="M21.0369 19.3872C22.4738 17.5909 23.333 15.3124 23.333 12.8333C23.333 7.03426 18.632 2.33325 12.833 2.33325C7.03402 2.33325 2.33301 7.03426 2.33301 12.8333C2.33301 18.6322 7.03402 23.3333 12.833 23.3333C15.3122 23.3333 17.5907 22.474 19.387 21.0371L22.508 24.1582C22.9637 24.6138 23.7024 24.6138 24.158 24.1582C24.6136 23.7026 24.6136 22.9639 24.158 22.5083L21.0369 19.3872ZM20.9997 12.8333C20.9997 17.3436 17.3433 20.9999 12.833 20.9999C8.32268 20.9999 4.66634 17.3436 4.66634 12.8333C4.66634 8.32293 8.32268 4.66659 12.833 4.66659C17.3433 4.66659 20.9997 8.32293 20.9997 12.8333Z" fill="black"/>
</svg>