<svg width="28" height="28" viewBox="0 0 28 28" fill="none" xmlns="http://www.w3.org/2000/svg">
<rect width="28" height="28" rx="8" fill="#35C04C"/>
<path d="M18.1667 6.78333C19.4236 7.50904 20.4691 8.55043 21.1999 9.80441C21.9306 11.0584 22.3212 12.4815 22.3329 13.9328C22.3446 15.3841 21.9771 16.8133 21.2667 18.0789C20.5563 19.3445 19.5277 20.4027 18.2827 21.1486C17.0377 21.8945 15.6195 22.3023 14.1684 22.3317C12.7174 22.3611 11.2838 22.011 10.0096 21.316C8.73549 20.6211 7.66491 19.6054 6.90391 18.3696C6.14291 17.1337 5.71786 15.7206 5.67085 14.27L5.66669 14L5.67085 13.73C5.71752 12.2908 6.13631 10.8883 6.88639 9.65915C7.63646 8.43001 8.69223 7.4162 9.95076 6.71656C11.2093 6.01692 12.6276 5.65532 14.0675 5.66702C15.5074 5.67872 16.9197 6.06332 18.1667 6.78333ZM17.0892 11.7442C16.9457 11.6007 16.7548 11.5145 16.5523 11.5018C16.3497 11.489 16.1495 11.5506 15.9892 11.675L15.9109 11.7442L13.1667 14.4875L12.0892 13.4108L12.0109 13.3417C11.8505 13.2174 11.6503 13.1558 11.4479 13.1686C11.2454 13.1814 11.0545 13.2676 10.9111 13.411C10.7676 13.5545 10.6814 13.7454 10.6686 13.9478C10.6559 14.1503 10.7174 14.3505 10.8417 14.5108L10.9109 14.5892L12.5775 16.2558L12.6559 16.325C12.802 16.4384 12.9817 16.4999 13.1667 16.4999C13.3517 16.4999 13.5314 16.4384 13.6775 16.325L13.7559 16.2558L17.0892 12.9225L17.1584 12.8442C17.2827 12.6838 17.3443 12.4836 17.3316 12.2811C17.3189 12.0786 17.2327 11.8877 17.0892 11.7442Z" fill="white"/>
</svg>
