<svg xmlns="http://www.w3.org/2000/svg" width="20" height="20" viewBox="0 0 20 20" fill="none">
  <path d="M18.3346 10C18.3346 14.6024 14.6037 18.3333 10.0013 18.3333C5.39893 18.3333 1.66797 14.6024 1.66797 10C1.66797 5.39763 5.39893 1.66667 10.0013 1.66667C14.6037 1.66667 18.3346 5.39763 18.3346 10Z" fill="#0083FF"/>
  <path d="M16.1353 4.3591C16.5143 4.77108 16.8524 5.22134 17.1431 5.70342L10.3465 12.5C9.69561 13.1509 8.64033 13.1509 7.98946 12.5L5.66205 10.1726C5.33661 9.84715 5.33661 9.31951 5.66205 8.99408C5.98748 8.66864 6.51512 8.66864 6.84056 8.99408L9.16797 11.3215L16.0787 4.41074C16.097 4.39251 16.1158 4.37529 16.1353 4.3591Z" fill="white"/>
</svg>