<svg xmlns="http://www.w3.org/2000/svg" width="20" height="20" viewBox="0 0 20 20" fill="none">
  <path d="M18.3346 9.99996C18.3346 14.6023 14.6037 18.3333 10.0013 18.3333C5.39893 18.3333 1.66797 14.6023 1.66797 9.99996C1.66797 5.39759 5.39893 1.66663 10.0013 1.66663C14.6037 1.66663 18.3346 5.39759 18.3346 9.99996Z" fill="#F11000"/>
  <path fill-rule="evenodd" clip-rule="evenodd" d="M6.91207 11.9107C6.58663 12.2361 6.58663 12.7638 6.91207 13.0892C7.23751 13.4147 7.76514 13.4147 8.09058 13.0892L10.0013 11.1785L11.912 13.0892C12.2375 13.4147 12.7651 13.4147 13.0906 13.0893C13.416 12.7638 13.416 12.2362 13.0906 11.9107L11.1798 9.99999L13.0906 8.08922C13.416 7.76378 13.416 7.23614 13.0906 6.9107C12.7651 6.58527 12.2375 6.58527 11.9121 6.9107L10.0013 8.82147L8.09056 6.91073C7.76512 6.58529 7.23748 6.58529 6.91205 6.91073C6.58661 7.23616 6.58661 7.7638 6.91205 8.08924L8.82279 9.99999L6.91207 11.9107Z" fill="white"/>
</svg>