<svg xmlns="http://www.w3.org/2000/svg" width="20" height="20" viewBox="0 0 20 20" fill="none">
  <path d="M16.4784 5.75998C16.2384 5.43998 15.7584 5.27998 15.3584 5.27998H13.4384V4.55998C13.4384 3.75998 12.7984 3.03998 11.9184 3.03998H1.91844C1.11844 3.03998 0.398438 3.67998 0.398438 4.55998V12.88C0.398438 13.68 1.03844 14.4 1.91844 14.4H2.55844C2.71844 15.84 3.91844 16.96 5.35844 16.96C6.79844 16.96 8.07844 15.84 8.15844 14.4H12.2384C12.3984 15.84 13.5984 16.96 15.0384 16.96C16.4784 16.96 17.7584 15.84 17.8384 14.4H18.0784C18.8784 14.4 19.5984 13.76 19.5984 12.88V9.83998C19.5984 9.43998 19.4384 9.11998 19.1984 8.79998L16.4784 5.75998ZM5.35844 15.36C4.71844 15.36 4.15844 14.8 4.15844 14.16C4.15844 13.52 4.71844 12.96 5.35844 12.96C5.99844 12.96 6.55844 13.52 6.55844 14.16C6.55844 14.8 5.99844 15.36 5.35844 15.36ZM15.0384 15.36C14.3984 15.36 13.8384 14.8 13.8384 14.16C13.8384 13.52 14.3984 12.96 15.0384 12.96C15.6784 12.96 16.2384 13.52 16.2384 14.16C16.3184 14.8 15.7584 15.36 15.0384 15.36ZM17.4384 9.83998H13.7584C13.5984 9.83998 13.5184 9.75998 13.5184 9.59998V7.11998C13.5184 6.95998 13.5984 6.87998 13.7584 6.87998H15.1984C15.2784 6.87998 15.3584 6.87998 15.3584 6.95998L17.5984 9.43998C17.7584 9.59998 17.5984 9.83998 17.4384 9.83998Z" fill="#B559F3"/>
</svg>