<svg xmlns="http://www.w3.org/2000/svg" width="20" height="20" viewBox="0 0 20 20" fill="none">
  <path d="M2.5 3.5C2.5 2.94772 2.94772 2.5 3.5 2.5H8.193C8.83789 2.5 9.47857 2.60397 10.0904 2.8079L10.743 3.02543C11.3548 3.22937 11.9954 3.33333 12.6403 3.33333H14.5C16.1569 3.33333 17.5 4.67648 17.5 6.33333V10.3333C17.5 11.9902 16.1569 13.3333 14.5 13.3333H12.6403C11.9954 13.3333 11.3548 13.2294 10.743 13.0254L10.0904 12.8079C9.47857 12.604 8.83789 12.5 8.193 12.5H3.5C2.94771 12.5 2.5 12.0523 2.5 11.5V3.5Z" fill="#00BF53"/>
  <path fill-rule="evenodd" clip-rule="evenodd" d="M3.33333 1.66663C3.79357 1.66663 4.16667 2.03972 4.16667 2.49996V17.5C4.16667 17.9602 3.79357 18.3333 3.33333 18.3333C2.8731 18.3333 2.5 17.9602 2.5 17.5V2.49996C2.5 2.03972 2.8731 1.66663 3.33333 1.66663Z" fill="#00BF53"/>
</svg>