<svg xmlns="http://www.w3.org/2000/svg" width="20" height="20" viewBox="0 0 20 20" fill="none">
  <path d="M18.3346 10C18.3346 14.6024 14.6037 18.3333 10.0013 18.3333C5.39893 18.3333 1.66797 14.6024 1.66797 10C1.66797 5.39763 5.39893 1.66667 10.0013 1.66667C14.6037 1.66667 18.3346 5.39763 18.3346 10Z" fill="#F78229"/>
  <path fill-rule="evenodd" clip-rule="evenodd" d="M10.0013 5C10.4615 5 10.8346 5.3731 10.8346 5.83333V9.65482L12.6739 11.4941C12.9993 11.8195 12.9993 12.3472 12.6739 12.6726C12.3485 12.998 11.8208 12.998 11.4954 12.6726L9.65612 10.8333C9.34356 10.5208 9.16797 10.0968 9.16797 9.65482V5.83333C9.16797 5.3731 9.54106 5 10.0013 5Z" fill="white"/>
</svg>