<svg xmlns="http://www.w3.org/2000/svg" width="64" height="64" viewBox="0 0 64 64" fill="none">
  <path d="M31.9991 45.3333H32.0258M31.9991 26.6667V37.3333M17.0979 56H46.9002C51.6513 56 54.0269 56 55.4202 55.0009C56.6361 54.129 57.4298 52.7866 57.6078 51.3012C57.8117 49.5988 56.6669 47.5173 54.3773 43.3543L39.4761 16.2613C37.0383 11.8289 35.8194 9.61267 34.2087 8.87948C32.8049 8.24045 31.1932 8.24045 29.7895 8.87948C28.1788 9.61267 26.9599 11.8289 24.5221 16.2613L9.62089 43.3543C7.33126 47.5173 6.18644 49.5988 6.39041 51.3012C6.5684 52.7866 7.36212 54.129 8.57794 55.0009C9.9713 56 12.3468 56 17.0979 56Z" stroke="white" stroke-width="5" stroke-linecap="round" stroke-linejoin="round"/>
</svg>