<svg xmlns="http://www.w3.org/2000/svg" width="79" height="20" viewBox="0 0 79 20" fill="none">
  <g clip-path="url(#clip0_4182_51724)">
    <path fill-rule="evenodd" clip-rule="evenodd" d="M19.6865 10.0786C19.6865 13.8971 13.6292 20.0003 9.83937 20.0003C6.04952 20.0003 -0.0078125 13.8971 -0.0078125 10.0786C-0.0078125 6.26015 6.04952 0.156738 9.83937 0.156738C13.6292 0.156738 19.6865 6.26015 19.6865 10.0786ZM13.7782 10.0786C13.7782 11.606 11.3552 14.0473 9.83937 14.0473C8.32337 14.0473 5.90047 11.606 5.90047 10.0786C5.90047 8.55125 8.32347 6.10985 9.83937 6.10985C11.3552 6.10985 13.7782 8.55125 13.7782 10.0786Z" fill="#0065FF"/>
    <path d="M30.4114 19.9991C34.0863 19.9991 36.3893 17.6786 37.088 14.6278H33.051C32.5594 15.6707 31.783 16.453 30.4114 16.453C28.7552 16.453 27.539 15.2536 27.539 13.1937C27.539 11.1339 28.7552 9.93435 30.4114 9.93435C31.783 9.93435 32.5594 10.7166 33.051 11.7597H37.088C36.3893 8.70895 34.0863 6.3883 30.4114 6.3883C26.4779 6.3883 23.6055 9.413 23.6055 13.1937C23.6055 16.9746 26.4779 19.9991 30.4114 19.9991ZM38.4661 19.7123H42.3738V0.156604H38.4661V19.7123ZM46.6501 4.90204C48.0217 4.90204 49.1086 3.80695 49.1086 2.45106C49.1086 1.09528 48.0217 0.000183105 46.6501 0.000183105C45.3304 0.000183105 44.2175 1.09528 44.2175 2.45106C44.2175 3.80695 45.3304 4.90204 46.6501 4.90204ZM44.7093 19.7123H48.617V6.6752H44.7093V19.7123ZM56.9823 19.9991C60.6568 19.9991 62.9598 17.6786 63.6588 14.6278H59.6218C59.1298 15.6707 58.3538 16.453 56.9823 16.453C55.3258 16.453 54.1098 15.2536 54.1098 13.1937C54.1098 11.1339 55.3258 9.93435 56.9823 9.93435C58.3538 9.93435 59.1298 10.7166 59.6218 11.7597H63.6588C62.9598 8.70895 60.6568 6.3883 56.9823 6.3883C53.0488 6.3883 50.1763 9.413 50.1763 13.1937C50.1763 16.9746 53.0488 19.9991 56.9823 19.9991ZM73.7578 19.7123H78.4933L72.5933 12.568L77.3548 6.6752H72.7223L68.9443 11.3425V0.156604H65.0368V19.7123H68.9443V13.8977L73.7578 19.7123Z" fill="#191A27"/>
  </g>
  <defs>
    <clipPath id="clip0_4182_51724">
      <rect width="78.5" height="20" fill="white"/>
    </clipPath>
  </defs>
</svg>