<svg xmlns="http://www.w3.org/2000/svg" width="74" height="24" viewBox="0 0 74 24" fill="none">
  <g clip-path="url(#clip0_4182_51730)">
    <path d="M4.66567 0.00177419H64.7805C65.473 0.00177419 66.084 0.287357 66.4305 0.83724L72.524 10.7209C72.9925 11.4952 72.912 12.4317 72.2385 13.2069L63.6595 23.0906C63.191 23.6201 62.58 23.9464 61.8855 23.9464H1.95193C0.750255 23.9464 -0.126832 23.009 0.0150625 21.8267L2.27917 2.1197C2.42284 0.91795 3.46134 0 4.6639 0H4.66478L4.66567 0.00177419Z" fill="#00C0C9"/>
    <path d="M35.6427 6.67761L32.5228 13.78L30.9016 6.67761H27.6992L30.5522 16.9613L28.8902 20.328H32.051L38.7626 6.67761H35.6418H35.6427ZM5.42969 20.328H8.30309L8.77489 16.4495C9.22629 16.7981 10.0679 17.1883 11.1348 17.1883C14.4604 17.1883 16.4922 14.2527 16.4922 11.0518C16.4922 8.32191 15.1992 6.41331 12.7772 6.41331C11.627 6.41331 10.5805 6.78226 9.78054 7.44031L9.88254 6.68116H7.09164L5.42969 20.3315V20.3289V20.328ZM9.02144 14.4363L9.65819 9.38711C10.2736 8.89486 10.9716 8.68911 11.587 8.70951C12.818 8.72901 13.4955 9.71526 13.4955 11.2549C13.4955 13.246 12.4491 14.9498 10.6834 14.9498C10.1291 14.9498 9.49324 14.7653 9.02144 14.4363ZM17.0465 14.1702C17.0252 15.8323 18.3812 17.1883 20.4528 17.1883C21.9108 17.1883 22.9768 16.5728 23.5922 15.8952L23.469 16.9418H26.2599L26.9374 11.38C27.2664 8.62966 26.3627 6.39201 22.8322 6.39201C21.3955 6.39201 19.6511 6.72106 18.7066 7.33656L18.4184 9.63541C19.1784 9.22391 20.6559 8.72371 22.0101 8.72371C23.6313 8.72371 24.2068 9.53256 24.1447 10.3955H22.4207C19.9163 10.3955 17.0633 11.3596 17.0429 14.172H17.0456L17.0465 14.1702ZM19.9411 13.9431C19.9411 12.8345 21.2341 12.4239 22.567 12.4239H23.9213L23.7155 14.0859C23.1408 14.5374 22.1148 15.0092 21.2519 15.0092C20.4723 15.0092 19.9384 14.5782 19.9384 13.9414H19.9393L19.9411 13.9431ZM55.178 12.2394C55.1375 14.8052 57.005 17.1857 60.822 17.1857C62.176 17.1857 63.3265 16.9187 64.3515 16.2819L64.5575 13.8598C63.7165 14.3733 62.443 14.7218 61.3355 14.7218C59.8775 14.7218 58.564 14.0851 58.196 12.6075H65.298C65.4 12.3405 65.4825 11.7037 65.4825 11.0882C65.4825 8.37956 63.9835 6.40796 60.9045 6.40796C57.8255 6.40796 55.219 8.23501 55.178 12.2367V12.2385V12.2394ZM58.2155 10.8638C58.5035 9.50946 59.487 8.70771 60.6985 8.70771C61.91 8.70771 62.5665 9.38531 62.5665 10.4736C62.5665 10.5968 62.5665 10.7405 62.547 10.8638H58.2165H58.2155ZM41.1021 16.94L42.0466 9.42791C42.6833 8.99686 43.4008 8.64831 44.018 8.64831C44.8179 8.64831 45.2082 9.24431 45.0858 10.2696L44.2646 16.9409H47.1592L48.0629 9.65406L48.0824 9.44831C48.7192 9.01726 49.4579 8.64831 50.0735 8.64831C50.8735 8.64831 51.2635 9.24431 51.141 10.2696L50.32 16.9409H53.2145L54.1185 9.65406C54.365 7.62216 53.3175 6.39111 51.4505 6.39111C50.1575 6.39111 48.7821 7.12991 47.8589 7.80751C47.4687 6.90376 46.6067 6.39111 45.3953 6.39111C44.1838 6.39111 43.0141 6.98711 42.0909 7.60266L42.2142 6.67936H39.5058L38.2127 16.9427H41.1074H41.1038L41.1021 16.94Z" fill="white"/>
  </g>
  <defs>
    <clipPath id="clip0_4182_51730">
      <rect width="74" height="24" fill="white"/>
    </clipPath>
  </defs>
</svg>