<svg xmlns="http://www.w3.org/2000/svg" width="88" height="20" viewBox="0 0 88 20" fill="none">
  <g clip-path="url(#clip0_4182_51735)">
    <path d="M7.52832 18.0645C11.8348 18.0645 14.834 14.842 14.834 10.6452C14.834 6.44838 11.8348 3.22583 7.52832 3.22583C3.22182 3.22583 0.222656 6.44838 0.222656 10.6452C0.222656 14.842 3.22182 18.0645 7.52832 18.0645Z" fill="#20CC6D"/>
    <path d="M29.4431 9.1077C29.4431 5.79273 27.2526 3.22583 24.0646 3.22583C22.5379 3.22583 21.2695 3.76451 20.3714 4.70231V4.24431C20.3714 3.7427 20.0796 3.48389 19.5632 3.48389H17.6325C17.1161 3.48389 16.8242 3.7427 16.8242 4.24431V19.2131C16.8242 19.7147 17.1161 20 17.6325 20H19.5632C20.0796 20 20.3714 19.7147 20.3714 19.2131V13.5131C21.2695 14.4509 22.5379 15.0968 24.0646 15.0968C27.2526 15.0968 29.4431 12.4227 29.4431 9.1077ZM25.9505 9.1077C25.9505 10.7216 24.7269 11.9429 23.1666 11.9429C21.6062 11.9429 20.3714 10.7216 20.3714 9.1077C20.3714 7.50473 21.6062 6.27254 23.1666 6.27254C24.7269 6.27254 25.9505 7.50473 25.9505 9.1077Z" fill="black"/>
    <path d="M30.1094 9.1077C30.1094 12.4227 32.3548 15.0968 35.5539 15.0968C37.0808 15.0968 38.338 14.4509 39.2473 13.5131V13.9711C39.2473 14.4727 39.5392 14.8387 40.0555 14.8387H41.9201C42.4365 14.8387 42.7284 14.4727 42.7284 13.9711V4.24431C42.7284 3.7427 42.4365 3.48389 41.9201 3.48389H40.0555C39.5392 3.48389 39.2473 3.7427 39.2473 4.24431V4.70231C38.338 3.76451 37.0808 3.22583 35.5539 3.22583C32.3548 3.22583 30.1094 5.79273 30.1094 9.1077ZM33.6681 9.1077C33.6681 7.50473 34.8805 6.27254 36.4409 6.27254C38.0126 6.27254 39.2473 7.50473 39.2473 9.1077C39.2473 10.7216 38.0126 11.9429 36.4409 11.9429C34.8805 11.9429 33.6681 10.7216 33.6681 9.1077Z" fill="black"/>
    <path d="M46.1877 20H48.2755C48.7357 20 49.0389 20 49.196 19.3658L54.6131 4.36424C54.6596 4.23679 54.6812 4.1425 54.6812 4.0165C54.6812 3.66724 54.4477 3.48389 53.9891 3.48389H51.9236C51.4524 3.48389 51.1492 3.67727 51.0144 4.11344L49.0389 10.3072L47.0969 4.11344C46.9621 3.67727 46.6589 3.48389 46.1877 3.48389H44.1222C43.6579 3.48389 43.3906 3.67214 43.3906 4.02892C43.3906 4.1425 43.4152 4.24185 43.4597 4.36424L47.2875 14.8387L45.5591 19.0823C45.3346 19.6384 45.5813 20 46.1877 20Z" fill="black"/>
    <path d="M62.2389 3.22583C60.9142 3.22583 59.7367 3.72089 58.951 4.64777V4.24431C58.951 3.7427 58.6591 3.48389 58.1427 3.48389H56.1556C55.6392 3.48389 55.3477 3.7427 55.3477 4.24431V13.9711C55.3477 14.4727 55.6392 14.8387 56.1556 14.8387H58.1427C58.6591 14.8387 58.951 14.4727 58.951 13.9711V8.6497C58.951 7.10128 59.9937 6.27254 61.1613 6.27254C62.2053 6.27254 63.0359 7.21031 63.0359 8.22444V13.9711C63.0359 14.4727 63.3278 14.8387 63.8441 14.8387H65.8309C66.3473 14.8387 66.6382 14.4727 66.6382 13.9711V7.66831C66.6382 4.99673 64.7872 3.22583 62.2389 3.22583Z" fill="black"/>
    <path d="M85.3404 10.667V6.49065H87.0576C87.5736 6.49065 87.8878 6.20713 87.8878 5.70552V4.24432C87.8878 3.74271 87.5736 3.4839 87.0576 3.4839H85.3404V0.725629C85.3404 0.283898 85.0751 0.00393739 84.6391 4.12122e-05C84.5836 -0.000454723 84.5252 0.00352216 84.4644 0.012141L82.455 0.28945C81.9612 0.365781 81.7142 0.649297 81.7142 1.12909V3.4839H80.7814C80.265 3.4839 79.918 3.74271 79.918 4.24432V5.70552C79.918 6.20713 80.265 6.49065 80.7814 6.49065H81.7142V11.0269C81.7142 13.5567 83.2407 15.0968 85.7217 15.0968C86.3277 15.0968 86.9115 15.0023 87.4053 14.8387C87.832 14.697 87.8878 14.2982 87.8878 13.8621V12.7389C87.8878 12.2155 87.7085 11.9647 87.1698 11.9865H86.8218C85.7552 11.9865 85.3404 11.5721 85.3404 10.667Z" fill="black"/>
    <path d="M70.9815 10.0782H79.0131C79.4959 10.0782 79.8346 9.84922 79.8795 9.38031C79.902 9.22767 79.9196 9.06409 79.9196 8.92235C79.9196 5.74915 77.3016 3.22583 73.743 3.22583C70.1171 3.22583 67.3008 5.79277 67.3008 9.1077C67.3008 12.4227 70.05 15.0968 74.0685 15.0968C76.134 15.0968 77.7273 14.2873 78.9171 13.2078C79.2987 12.8589 79.2764 12.4663 78.9394 12.0955L78.4569 11.5721C78.1201 11.2014 77.7495 11.1905 77.3232 11.474C76.4249 12.0846 75.3596 12.3791 74.1136 12.3791C72.3849 12.3791 71.2399 11.5067 70.9815 10.0782ZM73.6982 5.83638C75.0342 5.83638 76.0098 6.62151 76.2904 7.8646H71.0376C71.3856 6.5997 72.3849 5.83638 73.6982 5.83638Z" fill="black"/>
  </g>
  <defs>
    <clipPath id="clip0_4182_51735">
      <rect width="88" height="20" fill="white"/>
    </clipPath>
  </defs>
</svg>