<svg xmlns="http://www.w3.org/2000/svg" width="112" height="20" viewBox="0 0 112 20" fill="none">
  <g clip-path="url(#clip0_4182_51709)">
    <path d="M20.1436 9.99999C20.1436 4.48819 15.6754 0.019989 10.1636 0.019989C4.65179 0.019989 0.183594 4.48819 0.183594 9.99999C0.183594 15.5118 4.65179 19.98 10.1636 19.98C15.6754 19.98 20.1436 15.5118 20.1436 9.99999Z" fill="#A8FF70"/>
    <path d="M20.1436 9.99999C20.1436 4.48819 15.6754 0.019989 10.1636 0.019989C4.65179 0.019989 0.183594 4.48819 0.183594 9.99999C0.183594 15.5118 4.65179 19.98 10.1636 19.98C15.6754 19.98 20.1436 15.5118 20.1436 9.99999Z" stroke="#4ABD00" stroke-width="0.1"/>
    <path d="M15.6941 9.20311L18.0775 6.81975C16.8168 3.68574 13.7489 1.47284 10.1638 1.47284C9.02256 1.47284 7.93408 1.69738 6.93936 2.10436L3.28646 5.75727C2.07304 6.97071 2.07304 8.23651 3.28646 9.44991L4.63336 10.7968L2.25 13.1802C3.51066 16.3142 6.5786 18.5271 10.1638 18.5271C11.3049 18.5271 12.3934 18.3025 13.3881 17.8956L17.041 14.2427C18.2544 13.0292 18.2544 11.7634 17.041 10.55L15.6941 9.20311Z" fill="#7000FF"/>
    <path d="M10.9871 5.15585C10.489 5.09388 9.8394 5.09388 9.34136 5.15585V9.01073H10.9871V5.15585ZM13.0032 6.94569V10.4083C13.0032 12.3723 12.0971 13.7853 10.1642 13.7853C8.23132 13.7853 7.32528 12.3723 7.32528 10.4083V6.94569C6.68072 7.06173 6.05948 7.21849 5.47656 7.41633V10.2371C5.47656 13.0086 7.75792 14.8906 10.1642 14.8906C12.5705 14.8906 14.8519 13.0086 14.8519 10.2371V7.41633C14.2693 7.21849 13.6477 7.06173 13.0032 6.94569Z" fill="white"/>
    <path d="M47.5703 10.9262C47.5703 12.0575 46.9299 12.5821 45.9783 12.5821C45.0267 12.5821 44.4087 12.0689 44.4087 10.9262V7.18747H42.3555V10.9972C42.3555 13.4811 44.4311 14.4511 45.9931 14.4511C47.5555 14.4511 49.6347 13.4772 49.6347 10.9972V7.18747H47.5815L47.5703 10.9262Z" fill="#7000FF"/>
    <path d="M40.6146 8.92187V7.18747H33.9386V8.92187H37.8908L33.7812 12.5857V14.3201H40.8654V12.5857H36.5123L40.6146 8.92187Z" fill="#7000FF"/>
    <path d="M30.379 10.9262C30.379 12.0575 29.7382 12.5821 28.7945 12.5821C27.8507 12.5821 27.2175 12.0689 27.2175 10.9262V7.18747H25.1641V10.9972C25.1641 13.4811 27.232 14.4511 28.8016 14.4511C30.3712 14.4511 32.4355 13.4772 32.4355 10.9972V7.18747H30.3825L30.379 10.9262Z" fill="#7000FF"/>
    <path d="M84.951 11.7883V7.15764H82.917L82.9278 8.28536C82.4862 7.62224 81.7106 7.01556 80.3282 7.01556C77.953 7.01556 76.7354 8.86612 76.7354 10.7131C76.6906 12.5864 78.0694 14.4518 80.231 14.4518C81.377 14.4518 82.415 13.9386 82.917 13.0545C83.033 13.4254 83.273 13.7514 83.591 13.9723C83.9134 14.1972 84.2954 14.3059 84.689 14.287H85.865V12.5601H85.5394C85.1346 12.5601 84.951 12.4102 84.951 11.7883ZM80.759 12.6645C79.5978 12.6645 78.717 11.859 78.717 10.7277C78.717 9.5964 79.5978 8.821 80.759 8.821C81.9206 8.821 82.8346 9.60384 82.8346 10.7277C82.8346 11.8515 81.9654 12.6645 80.759 12.6645Z" fill="#7000FF"/>
    <path d="M71.6402 14.4515C69.1794 14.4515 67.4258 13.29 67.4258 10.458V4.94727H69.4786V7.90315C70.067 7.32243 70.8502 7.03791 71.9774 7.03791C74.4314 7.03791 75.7986 8.71263 75.7986 10.7393C75.7986 13.1557 73.907 14.4515 71.6402 14.4515ZM71.6182 8.80215C70.449 8.80215 69.565 9.60771 69.565 10.739C69.565 11.8703 70.445 12.6457 71.6182 12.6457C72.791 12.6457 73.6934 11.855 73.6934 10.739C73.6934 9.62299 72.8242 8.80215 71.6182 8.80215Z" fill="#7000FF"/>
    <path d="M98.6117 14.2942V10.7991L101.807 14.2942H104.235L100.923 10.6304L103.98 7.16121H101.571L98.6153 10.5029V4.95477H96.5625V14.2942H98.6117Z" fill="#7000FF"/>
    <path d="M87.3438 7.16112H89.4078V8.44228H89.5201C89.6437 8.20252 89.8197 7.98908 90.0485 7.80152C90.2393 7.64416 90.4977 7.49428 90.8237 7.35576C91.1497 7.2208 91.5693 7.14584 92.0901 7.14584C92.5093 7.14584 92.8989 7.20588 93.2665 7.322C93.6333 7.43816 93.9482 7.62536 94.2214 7.87256C94.495 8.11976 94.705 8.44584 94.855 8.82412C95.0046 9.20632 95.0834 9.66344 95.0834 10.1952V14.2824H93.0266V10.7759C93.0266 10.1653 92.8618 9.71212 92.5282 9.41232C92.195 9.11252 91.7565 8.96656 91.2133 8.96656C90.6137 8.96656 90.1645 9.13884 89.8573 9.47588C89.5541 9.81296 89.4001 10.2477 89.4001 10.7759V14.2824H87.3438V7.16112Z" fill="#7000FF"/>
    <path d="M63.1683 10.1806C63.1683 8.44981 62.0259 7.05249 59.8307 7.05249C58.7143 7.05249 57.6391 7.58065 57.1447 8.38621C56.6503 7.58065 55.5751 7.05249 54.4587 7.05249C52.2631 7.05249 51.1211 8.44981 51.1211 10.1806V14.324H53.1739V10.4392C53.1739 9.44645 53.8155 8.91441 54.6463 8.91441C55.4771 8.91441 56.1187 9.44645 56.1187 10.4392V14.324H58.1719V10.4392C58.1719 9.44645 58.8135 8.91441 59.6443 8.91441C60.4751 8.91441 61.1163 9.44645 61.1163 10.4392V14.324H63.1695L63.1683 10.1806Z" fill="#7000FF"/>
  </g>
  <defs>
    <clipPath id="clip0_4182_51709">
      <rect width="111.2" height="20" fill="white"/>
    </clipPath>
  </defs>
</svg>