<svg xmlns="http://www.w3.org/2000/svg" width="75" height="22" viewBox="0 0 75 22" fill="none">
  <path d="M10.9062 0C17.3207 0.0805742 22.0503 4.70067 22.2193 10.2983C22.3978 16.2273 17.4642 21.2032 10.9588 21.2093C7.97626 21.0952 5.37793 20.1055 3.25782 18.0806C1.05322 15.9765 -0.0403106 13.3996 0.00113525 10.4458C0.040987 7.6135 1.1393 5.14307 3.25463 3.12719C5.41619 1.06875 8.05916 0.0805742 10.9062 0ZM13.1028 8.66401C13.1458 8.68073 13.1761 8.69442 13.208 8.70506C14.0545 9.00911 14.6267 9.57769 14.9009 10.3895C15.2675 11.4735 15.0794 12.5103 14.4849 13.4817C14.0624 14.1735 13.4057 14.6083 12.6501 14.926C11.5773 15.3775 10.4439 15.5402 9.28659 15.5493C7.32748 15.566 5.36837 15.5539 3.41085 15.5554C3.371 15.5554 3.31839 15.5326 3.29448 15.5736C3.27535 15.6086 3.31999 15.639 3.34071 15.6664C3.74561 16.2289 4.20629 16.7473 4.73552 17.2079C6.06338 18.3588 7.60644 19.1037 9.37267 19.423C10.8026 19.6829 12.2181 19.6206 13.6225 19.2588C13.7181 19.2344 13.7325 19.2071 13.6926 19.1204C13.2622 18.1794 12.8334 17.2368 12.4094 16.2927C12.3185 16.089 12.2037 15.8959 12.1495 15.6755C12.1272 15.5828 12.1719 15.5721 12.2324 15.5539C12.6421 15.4277 13.0311 15.2589 13.4073 15.0628C13.5699 14.9792 13.5699 14.9792 13.648 15.1358C13.6527 15.1464 13.6575 15.1586 13.6623 15.1692C13.9652 15.8549 14.2665 16.5405 14.5693 17.2262C14.6459 17.398 14.724 17.5682 14.8132 17.7643C14.8754 17.6123 14.9264 17.4892 14.9774 17.366C15.5465 15.9689 16.122 14.5733 16.6847 13.1731C17.0114 12.3583 17.5837 11.7958 18.4652 11.5343C18.7586 11.4476 19.0582 11.4127 19.3659 11.4446C19.4169 11.4507 19.4201 11.4735 19.4073 11.51C19.3962 11.5404 19.3834 11.5708 19.3707 11.5997C18.486 13.6353 17.6013 15.6709 16.7181 17.7066C16.7022 17.7446 16.6687 17.7811 16.6894 17.8282C20.3064 15.3638 21.8383 10.3317 19.2623 6.10236C16.6974 1.89274 11.692 0.971453 8.43695 2.02044C9.52411 2.02044 10.5985 2.01588 11.6729 2.02196C12.3185 2.025 12.9514 2.11014 13.5555 2.33513C14.2218 2.58294 14.8005 2.94476 15.2102 3.51942C15.5545 4.00287 15.6995 4.54408 15.7218 5.12178C15.776 6.51891 15.1639 7.57246 13.9206 8.30219C13.6655 8.44965 13.3897 8.55455 13.1028 8.66401ZM12.6501 12.8767C12.894 12.6121 13.0454 12.3218 13.1283 11.9995C13.2702 11.4491 13.2335 10.9231 12.8812 10.4442C12.6501 10.1311 12.3217 9.9304 11.9662 9.76469C11.9088 9.73732 11.8594 9.71148 11.8323 9.64611C11.5852 9.08209 11.335 8.52111 11.0863 7.95861C11.0369 7.84611 11.056 7.82026 11.1899 7.8081C11.4737 7.78074 11.7526 7.73513 12.0284 7.66215C12.4381 7.55421 12.8143 7.38243 13.1474 7.12854C13.6113 6.7728 13.8026 6.28935 13.8679 5.74357C13.9732 4.86942 13.5699 4.21419 12.7186 3.90253C12.3105 3.75202 11.8801 3.69425 11.445 3.69273C9.9832 3.68817 8.52144 3.69121 7.05968 3.68969C6.98316 3.68969 6.95925 3.71402 6.94809 3.78395C6.9194 3.97246 6.88433 4.15945 6.84926 4.34645C6.64203 5.46993 6.4348 6.5934 6.22598 7.71536C6.20844 7.80658 6.22757 7.83394 6.33119 7.83394C6.80781 7.82938 7.28285 7.83698 7.75947 7.82938C7.90453 7.82634 7.98583 7.88411 8.04003 8.0027C8.23291 8.42989 8.42739 8.85556 8.62027 9.28276C8.67606 9.4059 8.67447 9.4059 8.5326 9.4059C7.70846 9.4059 6.88433 9.40894 6.06019 9.40286C5.94542 9.40286 5.90876 9.43631 5.88963 9.53968C5.81311 9.98208 5.72703 10.4245 5.64414 10.8654C5.46082 11.8368 5.28069 12.8083 5.09259 13.7782C5.07028 13.8922 5.09419 13.9211 5.21853 13.9196C6.62928 13.915 8.04003 13.9196 9.45078 13.9165C10.0135 13.915 10.5682 13.8512 11.1118 13.7098C11.2027 13.687 11.2186 13.6627 11.1803 13.5806C10.6575 12.4358 10.1362 11.288 9.61497 10.1417C8.86416 8.48614 8.11336 6.83057 7.36255 5.17499C7.2956 5.02753 7.29719 5.02145 7.46776 5.03361C8.38275 5.10506 9.10965 5.48969 9.63729 6.20878C9.88915 6.55084 10.0231 6.94611 10.192 7.32314C10.9396 9.00151 11.6793 10.6829 12.4221 12.3628C12.4955 12.5316 12.5704 12.6973 12.6501 12.8767ZM2.95176 15.0628C2.9932 14.9473 5.03521 3.8706 5.03521 3.77179C1.76736 6.26807 0.557466 11.1694 2.95176 15.0628Z" fill="#0083FF"/>
  <path d="M25.4535 9.99574C25.4535 8.33104 25.4551 6.66787 25.4503 5.00318C25.4503 4.89068 25.4838 4.86027 25.6002 4.86027C27.1895 4.86331 28.7788 4.87091 30.3681 4.85723C30.6901 4.85419 31.0105 4.84659 31.3309 4.88156C31.6704 4.91804 31.9972 4.99862 32.3144 5.11416C32.6428 5.23426 32.9568 5.38628 33.2406 5.58696C33.6168 5.85301 33.8846 6.19811 34.0615 6.61314C34.2719 7.10571 34.3182 7.62108 34.2672 8.13797C34.2066 8.74152 33.8957 9.228 33.3713 9.5807C33.2788 9.64303 33.1864 9.70841 33.0764 9.74642C33.0445 9.75858 33.0142 9.77834 33.0174 9.81635C33.0206 9.84979 33.0525 9.85739 33.0796 9.86804C33.7714 10.1356 34.1827 10.6464 34.4361 11.2925C34.6497 11.8337 34.6306 12.3826 34.5094 12.939C34.3915 13.4832 34.1205 13.9408 33.6789 14.3057C33.4079 14.5307 33.0955 14.6873 32.7592 14.8089C32.2507 14.9913 31.723 15.075 31.1826 15.1084C30.9834 15.1206 30.7841 15.1266 30.5864 15.1266C28.9334 15.1282 27.2803 15.1282 25.6273 15.1282C25.4519 15.1282 25.4519 15.1282 25.4519 14.9655C25.4535 13.3084 25.4535 11.6513 25.4535 9.99574ZM29.2171 13.2947C29.7352 13.2947 30.2549 13.3038 30.7729 13.2917C31.1874 13.2826 31.5923 13.2157 31.9558 13.0044C32.2363 12.8417 32.4579 12.6273 32.5392 12.3141C32.6508 11.8824 32.3925 11.3488 31.9908 11.1086C31.4775 10.8015 30.9196 10.6799 30.3218 10.6799C29.4084 10.6799 28.495 10.6814 27.5816 10.6768C27.4844 10.6768 27.4557 10.7057 27.4557 10.7939C27.4573 11.592 27.4573 12.3886 27.4557 13.1868C27.4557 13.2719 27.486 13.2962 27.5752 13.2947C28.1204 13.2932 28.6688 13.2947 29.2171 13.2947ZM29.1884 8.95891C29.6906 8.95891 30.1911 8.95891 30.6932 8.95891C30.9929 8.95891 31.2831 8.91331 31.5652 8.81449C32.1518 8.60925 32.3861 8.02699 32.1486 7.49338C31.8952 6.92176 31.3946 6.65419 30.7714 6.6405C29.7097 6.6177 28.6465 6.63594 27.5848 6.63138C27.478 6.63138 27.4541 6.66939 27.4541 6.75908C27.4557 7.45081 27.4557 8.14405 27.4541 8.83577C27.4541 8.92851 27.4796 8.96196 27.5848 8.96044C28.1188 8.9574 28.6528 8.95891 29.1884 8.95891Z" fill="#0083FF"/>
  <path d="M49.204 9.98684C49.204 8.33431 49.204 6.6833 49.204 5.03077C49.204 4.85593 49.204 4.85593 49.3825 4.85593C49.8416 4.85593 50.3007 4.85745 50.7598 4.85441C50.8523 4.85441 50.9144 4.88026 50.9734 4.95171C51.7513 5.89123 52.5324 6.82772 53.3119 7.76573C54.0548 8.65965 54.7944 9.55356 55.5357 10.449C55.8433 10.8199 56.151 11.1909 56.4586 11.5618C56.4825 11.5907 56.4985 11.6455 56.5527 11.6257C56.6021 11.6074 56.5814 11.5542 56.5814 11.5177C56.5814 9.35593 56.5814 7.19259 56.5814 5.03077C56.5814 4.86354 56.5893 4.85593 56.7695 4.85593C57.3433 4.85593 57.9172 4.85897 58.4911 4.85441C58.6138 4.85289 58.6505 4.8909 58.6505 5.00796C58.6473 8.31606 58.6473 11.6242 58.6473 14.9323C58.6473 15.1193 58.6473 15.1193 58.448 15.1193C58.0224 15.1193 57.5984 15.1132 57.1728 15.1223C57.0261 15.1253 56.9289 15.0797 56.838 14.9703C56.4809 14.534 56.1159 14.1022 55.7524 13.6705C55.0877 12.8784 54.423 12.0863 53.7567 11.2943C52.9756 10.3639 52.1929 9.43194 51.4118 8.50154C51.3847 8.46809 51.3656 8.4088 51.3114 8.42248C51.2524 8.43921 51.2795 8.4985 51.2795 8.53954C51.2779 10.677 51.2795 12.8161 51.2795 14.9536C51.2795 15.1041 51.2635 15.1193 51.1041 15.1193C50.543 15.1193 49.9819 15.1193 49.4208 15.1193C49.204 15.1193 49.204 15.1193 49.204 14.9064C49.204 14.4321 49.204 13.9593 49.204 13.485C49.204 12.3189 49.204 11.1529 49.204 9.98684Z" fill="#0083FF"/>
  <path d="M41.24 15.5839C40.985 15.5839 40.7841 15.5824 40.5849 15.5839C40.3888 15.5855 40.2055 15.5201 40.0142 15.4912C39.4515 15.4061 38.9063 15.2464 38.3978 15.0017C37.706 14.6687 37.1305 14.2005 36.6842 13.5893C36.4196 13.226 36.198 12.8414 36.0338 12.4309C35.8728 12.0311 35.7676 11.6175 35.699 11.1919C35.613 10.6598 35.6209 10.1262 35.6528 9.59407C35.6767 9.18664 35.7819 8.79137 35.9174 8.40066C36.08 7.92938 36.3128 7.49306 36.6093 7.08867C37.1241 6.38326 37.7809 5.83293 38.5875 5.43766C39.1518 5.16097 39.7464 4.97398 40.3697 4.901C40.9882 4.82955 41.6114 4.83867 42.2331 4.93901C42.6444 5.0059 43.0445 5.10624 43.4319 5.24914C44.0057 5.46046 44.5254 5.75843 44.9797 6.15826C45.375 6.50793 45.6971 6.91232 45.9617 7.35775C46.2103 7.77583 46.3937 8.22127 46.5292 8.68647C46.7109 9.30978 46.7603 9.94373 46.7236 10.5838C46.7029 10.9608 46.6376 11.3363 46.5387 11.7057C46.4255 12.1344 46.2725 12.5464 46.0605 12.9387C45.6253 13.7474 45.0164 14.4072 44.1859 14.8679C43.6726 15.1522 43.121 15.3392 42.5408 15.4562C42.0929 15.5444 41.6449 15.6265 41.24 15.5839ZM37.6566 10.1505C37.6502 10.4926 37.6884 10.83 37.7681 11.163C37.867 11.5795 38.0391 11.9687 38.2687 12.3336C38.5078 12.7152 38.8027 13.0512 39.2012 13.2929C39.7496 13.6273 40.3633 13.7474 41.0025 13.7748C41.4186 13.7931 41.8314 13.752 42.2395 13.6608C42.7114 13.5544 43.1386 13.3659 43.4925 13.0527C44.1365 12.4811 44.4919 11.7605 44.6402 10.941C44.8107 10.0015 44.6705 9.10758 44.1843 8.26992C43.8766 7.73934 43.4685 7.30454 42.8979 7.01569C42.3065 6.7162 41.6672 6.64171 41.0137 6.64475C40.6104 6.64627 40.2166 6.72532 39.8373 6.87279C39.4355 7.02938 39.0689 7.23766 38.7644 7.52803C38.0089 8.25016 37.6566 9.13495 37.6566 10.1505Z" fill="#0083FF"/>
  <path d="M60.5249 4.86209C60.8645 4.86209 61.2056 4.86361 61.5451 4.86057C61.6424 4.85905 61.6918 4.88945 61.7285 4.98523C61.9102 5.44587 62.1063 5.90043 62.2928 6.35804C62.4538 6.75331 62.6084 7.15009 62.7678 7.54384C62.9065 7.8859 63.0515 8.22493 63.1918 8.56699C63.3257 8.89688 63.4548 9.22982 63.5903 9.55972C63.7561 9.96563 63.9251 10.3685 64.0909 10.7744C64.1993 11.0405 64.3045 11.3095 64.4129 11.5756C64.5292 11.8599 64.6488 12.1442 64.7652 12.4285C64.797 12.5075 64.8257 12.5866 64.856 12.6656C64.8656 12.69 64.8592 12.728 64.8991 12.731C64.9357 12.734 64.9453 12.6991 64.9565 12.6748C65.0234 12.5182 65.0904 12.3616 65.1541 12.2035C65.2657 11.9298 65.3725 11.6531 65.4841 11.3795C65.6228 11.0374 65.7646 10.6969 65.9065 10.3548C66.0468 10.0143 66.1903 9.67374 66.3305 9.3332C66.466 9.0033 66.5983 8.67188 66.7338 8.34046C66.8725 7.9984 67.0144 7.65786 67.1531 7.3158C67.2615 7.04976 67.3683 6.78219 67.4783 6.51614C67.5962 6.23185 67.7174 5.94756 67.8337 5.66175C67.9214 5.44891 68.0075 5.23455 68.0872 5.01867C68.1286 4.90769 68.1813 4.85145 68.3231 4.85449C68.9815 4.86361 69.6398 4.85905 70.2982 4.85753C70.4576 4.85753 70.4687 4.86665 70.4082 5.00651C70.2217 5.43827 70.0288 5.86851 69.8407 6.30026C69.6781 6.67577 69.5203 7.05432 69.3561 7.42982C69.219 7.74604 69.0739 8.05921 68.9352 8.37543C68.7758 8.74029 68.6212 9.10668 68.4634 9.47154C68.2976 9.85465 68.1271 10.2362 67.9613 10.6193C67.8274 10.928 67.6967 11.2396 67.5612 11.5482C67.4225 11.8675 67.2806 12.1852 67.1403 12.506C66.9793 12.8739 66.8215 13.2433 66.6621 13.6112C66.4995 13.9867 66.3353 14.3622 66.1711 14.7378C66.1233 14.8487 66.0739 14.9612 66.0261 15.0722C65.9958 15.1437 65.948 15.1726 65.8603 15.1726C65.2737 15.168 64.6871 15.1695 64.1004 15.1695C63.8326 15.1695 63.8374 15.168 63.7386 14.9324C63.5728 14.5401 63.399 14.1525 63.2317 13.7617C63.0691 13.3847 62.9113 13.0077 62.7471 12.6322C62.5861 12.2643 62.4203 11.8979 62.2593 11.53C62.0983 11.1621 61.9421 10.7911 61.7811 10.4232C61.6424 10.104 61.5005 9.78472 61.3618 9.46394C61.2008 9.09604 61.043 8.72661 60.8836 8.3587C60.7433 8.03489 60.5983 7.71259 60.458 7.39029C60.3002 7.02999 60.1471 6.66817 59.9893 6.30786C59.8459 5.97797 59.6992 5.64807 59.5557 5.31665C59.5047 5.19807 59.4553 5.07797 59.3979 4.96091C59.3581 4.88033 59.4091 4.85601 59.492 4.85753C59.8363 4.86361 60.1806 4.86209 60.5249 4.86209Z" fill="#0083FF"/>
  <path d="M72.9593 9.98832C72.9593 8.32819 72.9609 6.66957 72.9577 5.00944C72.9577 4.89542 72.988 4.85437 73.1155 4.85437C73.6893 4.86045 74.2616 4.85741 74.8355 4.85741C74.9901 4.85741 75.0029 4.87109 74.9997 5.01704C74.9965 5.16603 74.9949 5.31653 74.9949 5.46552C74.9949 8.55775 74.9949 11.65 74.9949 14.7422C74.9949 14.7711 74.9949 14.7984 74.9949 14.8273C75.0029 15.1588 75.03 15.1207 74.6809 15.1207C74.1676 15.1223 73.6527 15.1207 73.1394 15.1207C72.9641 15.1207 72.9609 15.1177 72.9609 14.9535C72.9593 13.2995 72.9593 11.6439 72.9593 9.98832Z" fill="#0083FF"/>
</svg>