<svg xmlns="http://www.w3.org/2000/svg" width="75" height="22" viewBox="0 0 75 22" fill="none">
  <path fill-rule="evenodd" clip-rule="evenodd" d="M7.32019 21.0647L4.76757 18.4775C4.57768 18.285 4.57768 17.9707 4.76757 17.7782L7.32019 15.1909C7.51008 14.9983 7.82003 14.9983 8.01007 15.1909L10.5625 17.7782C10.7524 17.9707 10.7524 18.285 10.5625 18.4775L8.01007 21.0647C7.82003 21.2574 7.51008 21.2574 7.32019 21.0647ZM3.83253 3.18695L0.832862 0.146244C0.690308 0.00174694 0.487416 -0.039132 0.301146 0.039114C0.114915 0.117242 0 0.291727 0 0.495963V5.67062C0 5.80675 0.0478813 5.92394 0.142826 6.02018L0.59003 6.47348L3.48751 9.41044C3.6774 9.60308 3.9875 9.60308 4.17739 9.41044L6.73001 6.8232C6.9199 6.6306 6.9199 6.31639 6.73001 6.12391L3.83253 3.18695ZM11.4976 3.18695L14.4973 0.146244C14.6398 0.00174694 14.8427 -0.039132 15.0288 0.039114C15.2151 0.117242 15.33 0.291727 15.33 0.495963V5.67062C15.33 5.80675 15.2821 5.92394 15.1872 6.02018L14.7399 6.47348L11.8425 9.41044C11.6526 9.60308 11.3426 9.60308 11.1526 9.41044L8.60014 6.8232C8.41009 6.6306 8.41009 6.31639 8.60014 6.12391L11.4976 3.18695ZM12.4327 10.0087L14.4973 7.9158C14.6398 7.77142 14.8427 7.73054 15.0288 7.80863C15.2149 7.88692 15.33 8.06128 15.33 8.26548V12.4511C15.33 12.6554 15.2151 12.8299 15.0288 12.908C14.8427 12.9861 14.6398 12.9452 14.4973 12.8009L12.4327 10.708C12.2426 10.5155 12.2426 10.2013 12.4327 10.0087ZM0.832862 7.9158L2.89732 10.0087C3.08737 10.2013 3.08737 10.5155 2.89732 10.708L0.832862 12.8009C0.690308 12.9452 0.487416 12.9861 0.301146 12.908C0.114915 12.8299 0 12.6554 0 12.4511V8.26548C0 8.06128 0.115032 7.88692 0.301146 7.80863C0.487416 7.73054 0.690308 7.77142 0.832862 7.9158ZM8.60014 13.8934L11.1526 11.3061C11.3426 11.1136 11.6526 11.1136 11.8425 11.3061L14.3949 13.8934C14.585 14.0861 14.585 14.4002 14.3949 14.5927L11.8425 17.18C11.6526 17.3726 11.3426 17.3726 11.1526 17.18L8.60014 14.5927C8.41025 14.4002 8.41025 14.0861 8.60014 13.8934ZM0.935203 13.8934L3.48767 11.3061C3.67756 11.1136 3.9875 11.1136 4.17754 11.3061L6.73001 13.8934C6.9199 14.0861 6.9199 14.4002 6.73001 14.5927L4.17754 17.18C3.9875 17.3726 3.67756 17.3726 3.48767 17.18L0.935203 14.5927C0.745157 14.4002 0.745157 14.0861 0.935203 13.8934ZM7.32019 13.2952L4.76757 10.708C4.57768 10.5154 4.57768 10.2012 4.76757 10.0087L7.32019 7.42131C7.51008 7.22883 7.82003 7.22883 8.01007 7.42131L10.5625 10.0087C10.7524 10.2012 10.7524 10.5154 10.5625 10.708L8.01007 13.2952C7.82003 13.4877 7.51008 13.4877 7.32019 13.2952Z" fill="#1AB000"/>
  <path d="M19.3655 4.40515H22.8573L26.1362 9.93008L29.5002 4.40515H32.9707L28.4569 11.3113C28.0453 11.9588 27.2859 12.2825 26.1788 12.2825C25.0574 12.2825 24.2909 11.9588 23.8792 11.3113L19.3655 4.40515ZM33.7372 12.1745V4.40515H37.0374V12.1745H33.7372ZM39.0388 12.1745V4.40515H42.339V12.1745H39.0388ZM42.999 7.49135L46.363 4.40515H50.1317L45.9798 8.22512L50.2594 12.1745H46.4695L43.0416 9.04522C42.6299 8.67112 42.4241 8.40497 42.4241 8.2467C42.4241 8.1316 42.488 7.99492 42.6158 7.83665L42.999 7.49135ZM51.175 6.06694C51.175 5.93744 51.2033 5.80076 51.2601 5.65689C51.615 4.82238 52.7434 4.40515 54.6455 4.40515H58.5418C60.8271 4.40515 61.9697 4.95907 61.9697 6.06694V10.4912C61.9697 11.6134 60.82 12.1745 58.5205 12.1745H54.6455C53.5951 12.1745 52.8144 12.0774 52.3034 11.8832C51.7924 11.689 51.4517 11.3616 51.2814 10.9012C51.2246 10.7574 51.1962 10.6279 51.1962 10.5128L51.175 6.06694ZM54.4751 6.6065L54.4964 9.95162C54.4964 10.3113 54.8584 10.4912 55.5823 10.4912H57.605C58.3289 10.4912 58.6908 10.3329 58.6908 10.0164V6.6065C58.6908 6.24679 58.3289 6.06694 57.605 6.06694H55.5823C54.8442 6.06694 54.4751 6.24679 54.4751 6.6065ZM63.9711 4.40515H71.6786C73.7936 4.40515 74.851 4.9303 74.851 5.98061V7.53448C74.851 8.03805 74.5388 8.43374 73.9142 8.72147C73.4742 8.9229 72.949 9.04522 72.3387 9.08839C72.0974 9.10275 71.9057 9.10997 71.7638 9.10997L71.2528 9.08839L75.0001 12.1745H71.1038L67.6332 9.2826C67.4203 9.10997 67.3352 8.90854 67.3777 8.67834C67.4913 8.0165 68.1513 7.68556 69.3579 7.68556H70.6992C71.2812 7.68556 71.5722 7.5417 71.5722 7.25393V6.54174C71.5722 6.28274 71.3025 6.13169 70.7631 6.08853C70.7205 6.07412 70.6496 6.06694 70.5502 6.06694H67.2713V12.1745H63.9711V4.40515Z" fill="black"/>
  <path d="M27.4786 16.4777V13.8418H26.6827L26.0042 15.6226L25.2889 13.8418H24.5333V16.4777H25.0835V14.7527L25.7621 16.4777H26.2316L26.9101 14.7303V16.4777H27.4786ZM30.5964 16.4777V15.9201H29.5253V15.4144H30.4937V14.8976H29.5253V14.3957H30.5927V13.8418H28.9458V16.4777H30.5964ZM34.0222 14.4032V13.8418H31.8398V14.4032H32.6394V16.4777H33.2189V14.4032H34.0222ZM36.7805 16.4777H37.4113L36.443 13.8418H35.7718L34.7925 16.4777H35.4013L35.5884 15.9424H36.5934L36.7805 16.4777ZM36.0983 14.4961L36.41 15.407H35.7791L36.0983 14.4961ZM40.8922 16.4777V13.8418H40.3127V15.4442L39.337 13.8418H38.6328V16.4777H39.2086V14.7452L40.2796 16.4777H40.8922ZM44.7178 16.5372C45.29 16.5372 45.7485 16.1878 45.7485 15.526V13.8418H45.169V15.4776C45.169 15.7974 44.9929 15.9572 44.7178 15.9572C44.4428 15.9572 44.2667 15.7974 44.2667 15.4776V13.8418H43.6872V15.526C43.6872 16.1878 44.1457 16.5372 44.7178 16.5372ZM48.9836 14.4887C48.9286 14.1801 48.6829 13.786 48.0336 13.786C47.5348 13.786 47.102 14.1355 47.102 14.6337C47.102 15.0241 47.3697 15.3215 47.8099 15.407L48.1657 15.4739C48.3381 15.5074 48.4444 15.6041 48.4444 15.7379C48.4444 15.9015 48.3051 16.013 48.0776 16.013C47.7218 16.013 47.5604 15.8011 47.5385 15.5594L47.0066 15.6896C47.0433 16.0613 47.3514 16.5335 48.0703 16.5335C48.6902 16.5335 49.0313 16.1134 49.0313 15.7007C49.0313 15.3252 48.7745 15.0017 48.2794 14.9088L47.9309 14.8419C47.7512 14.8084 47.6742 14.7155 47.6742 14.5891C47.6742 14.4441 47.8136 14.3065 48.03 14.3065C48.3454 14.3065 48.4444 14.5147 48.4628 14.6374L48.9836 14.4887ZM51.9033 16.4777H52.6259L51.6098 14.9831L52.6222 13.8418H51.8593L50.9093 14.9497V13.8418H50.3297V16.4777H50.9093V15.7714L51.2027 15.4405L51.9033 16.4777ZM54.8339 16.5372C55.4061 16.5372 55.8646 16.1878 55.8646 15.526V13.8418H55.2851V15.4776C55.2851 15.7974 55.109 15.9572 54.8339 15.9572C54.5589 15.9572 54.3828 15.7974 54.3828 15.4776V13.8418H53.8033V15.526C53.8033 16.1878 54.2618 16.5372 54.8339 16.5372ZM59.5692 16.4777V13.8418H58.9897V15.4442L58.014 13.8418H57.3098V16.4777H57.8856V14.7452L58.9567 16.4777H59.5692ZM62.7749 16.4777H63.4058L62.4375 13.8418H61.7663L60.7869 16.4777H61.3958L61.5829 15.9424H62.5879L62.7749 16.4777ZM62.0927 14.4961L62.4045 15.407H61.7736L62.0927 14.4961ZM66.3292 16.4777V15.9163H65.2068V13.8418H64.6272V16.4777H66.3292ZM69.3552 16.4777H69.9861L69.0178 13.8418H68.3465L67.3672 16.4777H67.9761L68.1631 15.9424H69.1681L69.3552 16.4777ZM68.673 14.4961L68.9848 15.407H68.3538L68.673 14.4961ZM72.4583 16.4777H73.0965L72.5683 15.4107C72.8874 15.2955 73.0818 15.0241 73.0818 14.6671C73.0818 14.1987 72.7517 13.8418 72.2382 13.8418H71.2075V16.4777H71.787V15.4962H71.9924L72.4583 16.4777ZM71.787 14.9906V14.3511H72.1281C72.3666 14.3511 72.4949 14.4738 72.4949 14.6709C72.4949 14.8568 72.3666 14.9906 72.1281 14.9906H71.787ZM75.0001 16.4777V13.8418H74.4132V16.4777H75.0001Z" fill="#1AB000"/>
</svg>